<?xml version="1.0" standalone="no"?>
<!DOCTYPE svg PUBLIC "-//W3C//DTD SVG 1.1//EN" "http://www.w3.org/Graphics/SVG/1.1/DTD/svg11.dtd" >
<svg xmlns="http://www.w3.org/2000/svg">
<metadata></metadata>
<defs>
<font id="honeycreamregular" horiz-adv-x="567" >
<font-face units-per-em="2048" ascent="1294" descent="-754" />
<missing-glyph horiz-adv-x="503" />
<glyph horiz-adv-x="0" />
<glyph horiz-adv-x="682" />
<glyph unicode=" "  horiz-adv-x="503" />
<glyph unicode="&#x09;" horiz-adv-x="503" />
<glyph unicode="&#xa0;" horiz-adv-x="503" />
<glyph unicode="!" horiz-adv-x="532" d="M203 41q-9 37 9 80t48 53q31 9 54 -14.5t36 -79.5q9 -37 -7.5 -72t-47.5 -41q-29 -6 -55.5 15t-36.5 59zM256 447.5q0 9.5 2.5 33t3.5 33.5q2 40 6 121t6 121q4 81 12.5 242.5t12.5 242.5q4 95 0 141q-4 39 18 61.5t70 37.5q57 18 87.5 5t43.5 -65q0 -3 0.5 -14t0.5 -22 t-1 -21q-3 -17 -10 -66t-13.5 -83t-15.5 -66q-59 -203 -82 -553q-7 -82 -53 -203q-7 -21 -20.5 -26t-27 2.5t-24.5 20.5t-14 24q-2 24 -2 33.5z" />
<glyph unicode="&#x22;" horiz-adv-x="483" d="M84 1341q2 28 27.5 43t51.5 8t30 -34q20 -183 -43 -299q-4 -10 -18 -10.5t-17 8.5q-40 91 -31 284zM276 1343q2 29 27.5 44.5t51.5 8t30 -35.5q20 -183 -43 -299q-4 -11 -18 -11t-17 11q-40 89 -31 282z" />
<glyph unicode="#" horiz-adv-x="980" d="M29 418q4 3 10.5 9t10.5 10t10 8t12 6q15 5 42 9.5t38 8.5q35 12 47 33q7 16 37 125q-21 8 -58 11t-62 5.5t-50 24.5t-35 67q138 17 184 19q49 3 59 11t29 60q38 104 72 164q17 30 29.5 39t28 5.5t46.5 -23.5q-23 -62 -88 -248q22 0 57 -1t61.5 -1t49.5 2q12 1 25.5 12.5 t19.5 24.5q32 66 68 157q4 11 5 13l5.5 11t7.5 11t8.5 6t12 3t14.5 -5q47 -24 29 -71q-12 -30 -54 -144q39 -4 101 -8q2 0 15 -1.5t17 -3t12 -5t11 -10.5t2 -17q0 -13 -16 -27.5t-33 -21.5q-46 -21 -98 -24q-67 -3 -82 -72q-3 -11 -27 -86q21 0 62.5 -1.5t71 -1t55.5 4.5 q14 -1 19.5 0.5t15.5 -3.5t12.5 -6.5t11 -8.5t10.5 -9q11 -8 14.5 -18t-2 -18.5t-18.5 -12.5q-75 -31 -188 -63q-15 -5 -41 -5q-62 -9 -76.5 -23t-24.5 -75q-1 -4 -1.5 -14.5t-1.5 -17.5t-5 -11q-24 -24 -49 -24q-35 0 -27 47q12 49 23 106q-12 1 -70 6t-88 6q-43 3 -55 -43 q-5 -18 -17 -51t-14 -37q-14 -42 -49 -24q-9 4 -16 18t-7 25q0 4 11 100q-76 24 -86 29q-9 5 -24.5 21t-18.5 18zM309 502q0 -1 0.5 -2.5t1.5 -5t2 -7.5q127 0 152 2q10 0 23 10t16 21q8 22 17 64.5t11 50.5q-39 5 -60 7.5t-45.5 2.5t-35.5 -1.5t-25 -9.5t-19.5 -16.5 t-13.5 -27.5t-12.5 -37.5t-11.5 -50.5z" />
<glyph unicode="$" horiz-adv-x="880" d="M29.5 296q-7.5 97 70.5 159q62 43 133 24q26 -7 41 -20q19 -19 23 -51q4 -27 -14 -39q-8 -7 -19 -5t-16 11q-1 5 -1 14t-1 14q0 21 -23 33q-15 10 -39 6q-25 -6 -44 -27t-25 -48q-12 -54 18 -109q52 -86 150 -102q9 -2 28.5 -2t28.5 -2q46 -4 68 -2q61 6 114 49 q53 38 87 99t40 128q11 99 -35 162q-35 46 -110 76q-55 22 -107 36q-20 6 -62 11.5t-63 11.5q-64 19 -102.5 66.5t-44.5 117.5q-11 129 55 187q4 4 19 17.5t20 18.5t18.5 17t20.5 17.5t19.5 15.5t21.5 16t20.5 13t22.5 12q62 32 82 39q0 68 10 114q8 23 15 33q10 16 28 16 q27 0 39 -47q7 -31 4 -57q-4 -29 0 -84q0 4 36.5 -4t41.5 -12q24 -11 74 -54q10 -9 17.5 -19.5t16 -26.5t13.5 -23q10 -16 15.5 -38.5t5.5 -45t-10.5 -40.5t-31.5 -24q-22 -6 -67 6q-18 4 -21 17q-3 12 13 20q4 2 12 4t12 4q18 11 21 31q7 40 -25 69t-72 38q-72 14 -155 -13 q-9 -3 -28 -9.5t-30 -10t-26.5 -11t-28.5 -16.5q-62 -38 -74 -108q-7 -38 3.5 -78.5t35.5 -69.5q33 -38 107 -49q24 -4 79.5 -17.5t84.5 -17.5q109 -15 161 -49q52 -32 78 -92q42 -108 -9.5 -252t-141.5 -209q-8 -6 -30.5 -18t-33.5 -21q-16 -14 -80 -47q-24 -17 -24 -67 q2 -23 2 -66q3 -6 0 -11.5t-1.5 -8.5t-3 -6.5t-4 -5t-5.5 -3.5t-7 -2.5t-8.5 -2.5t-9.5 -3q-28 -8 -41 2q-15 10 -19 41q-1 9 -3 27.5t-3 27.5q0 8 3 22t3 21q0 14 -10 17q-2 2 -6 2q-9 1 -28.5 6.5t-30.5 5.5q-20 0 -68 21q-60 28 -110 69q-72 64 -79.5 161z" />
<glyph unicode="%" horiz-adv-x="1175" d="M142.5 -45.5q2.5 13.5 6.5 23.5t13 26q136 215 182 303q64 117 190 351.5t191 351.5q43 77 133 194q13 15 72 15q4 -1 9.5 -6.5t11.5 -14t10 -12.5q-3 -6 -6.5 -16t-6 -15.5t-6.5 -9.5q-61 -68 -118 -156.5t-91 -156.5t-87.5 -178.5t-82.5 -166.5q-53 -99 -154 -280.5 t-137 -247.5l-3.5 -7t-5 -8.5t-5.5 -4.5q-8 -3 -32 -13t-31.5 -11t-26.5 1q-15 6 -21.5 15.5t-4 23zM233 1083q-2 57 40.5 98.5t103.5 41.5q63 1 113.5 -45.5t52.5 -106.5q1 -66 -39 -108.5t-105 -44.5q-68 -2 -115.5 45.5t-50.5 119.5zM311 1051q-2 -4 3 -12t17 -26t21 -34 q42 108 49 135q1 2 -3 5.5t-11 9t-10 8.5q-7 -9 -22.5 -26t-26 -31t-17.5 -29zM690 391q2 74 48 127t106 49q51 -3 98 -60t49 -116q0 -57 -58.5 -107.5t-121.5 -50.5q-55 1 -89 45t-32 113zM759.5 379q1.5 -8 6.5 -26t8 -36q65 105 74 127q2 3 -2 8.5t-11 14t-10 12.5 q-52 -65 -65 -88q-2 -4 -0.5 -12z" />
<glyph unicode="&#x26;" horiz-adv-x="1067" d="M-53 122q-20 111 17.5 225t123.5 196q46 43 48.5 59t-29.5 53q-7 8 -11 13q-17 20 -29.5 35.5t-28 38t-26.5 42.5t-20.5 44.5t-14 47t-3.5 48t8 49.5q21 68 81 118.5t136 82.5q39 18 106 36q63 13 119 13q58 0 154 -15q105 -13 180 -112q25 -37 22.5 -76t-32 -73.5 t-74.5 -49.5q-21 -6 -45.5 1t-38.5 22q-20 27 -2 51q-1 -1 12.5 0t29 3.5t19.5 4.5q45 22 47 45q0 8 -4 20q-4 14 -8 21q-4 6 -16 10q-74 37 -152 49.5t-163.5 -11t-145.5 -91.5q-50 -56 -64.5 -110t3 -93t55.5 -66t90 -36q36 -2 43 -3t44.5 3.5t45.5 5.5q6 0 26.5 6t34 4.5 t19.5 -14.5q9 -13 3.5 -23t-13 -16t-22.5 -10t-25.5 -5.5t-20.5 -2.5q-262 -24 -348 -336q-12 -40 -4 -121q5 -75 35.5 -134.5t79.5 -96t110 -52t132 -4t142 50.5q77 41 119 124.5t23 158.5q-12 57 -51 82.5t-101 17.5q-80 -12 -147 -73q-37 -32 -30.5 -67t54.5 -32 q14 2 23 -3t8 -19q0 -13 -14 -27q-12 -10 -29.5 -14.5t-30.5 0.5q-10 3 -18.5 8.5t-20.5 17t-14 13.5q-3 3 -14 12t-16.5 16.5t-8.5 16.5q-10 32 10 65q8 15 21.5 33.5t21.5 28t29.5 33t24.5 26.5q50 53 90 74q37 20 81 25t78 0t78 -17q115 -37 213 27q57 37 75.5 108.5 t-15.5 120.5q-29 40 -102 30t-101 -59q-5 -10 -6.5 -23t2.5 -18q8 -6 21 -8.5t22 0.5q47 21 53 -20q1 -10 -1 -17t-9 -10.5t-11 -5t-16 -3t-14 -1.5q-67 -15 -86 47q-29 73 16 125q46 50 119 56t123 -38q43 -38 69 -101t28 -128.5t-34.5 -125.5t-109.5 -87q-25 -8 -33 -10 q-43 -5 -45 -6q-14 -2 -104 -17q0 -10 1.5 -42t0.5 -50q0 -7 -17 -115q-19 -84 -112 -159q-80 -60 -177 -93.5t-186 -27.5q-164 10 -264 116q-72 77 -92 188z" />
<glyph unicode="'" horiz-adv-x="278" d="M63 1260q1 17 12 30t26 17.5t30 4t27 -10t14 -25.5q20 -183 -43 -299q-4 -10 -18 -10.5t-17 8.5q-40 91 -31 285z" />
<glyph unicode="(" horiz-adv-x="679" d="M119 670q12 57 31 158.5t36.5 185t36.5 157.5q21 80 60 152t95 132t113 107.5t132 98.5q103 73 174 -4q7 -5 -1 -33.5t-12 -28.5q-34 2 -61 -7t-48 -29t-34 -37t-31.5 -47.5t-29.5 -44.5q-36 -44 -58 -103q-247 -596 -137 -1241q47 -270 215 -371q7 -4 12 -14.5t9.5 -25 t7.5 -21.5q-10 0 -29.5 -3t-28 -3.5t-20.5 4.5q-11 8 -42.5 32.5t-47 37t-39.5 34t-41.5 41.5t-32.5 41q-111 163 -170 386.5t-59 445.5z" />
<glyph unicode=")" horiz-adv-x="679" d="M35 -344q3 5 10.5 20t13.5 23.5t13 11.5q72 31 126 87.5t83.5 114.5t54.5 136q199 625 37 1249q-18 67 -41 109q-9 16 -24 48.5t-26 52t-29 42t-43.5 34.5t-59.5 15q-4 2 -7 30t4 34q28 22 60 25t59 -9.5t53 -36.5q67 -61 117 -115.5t97 -122t76 -143.5t38 -159 q9 -76 14.5 -158t10.5 -194.5t8 -159.5q-31 -219 -120 -432.5t-222 -358.5q-21 -23 -51.5 -46.5t-52 -37t-64 -38t-57.5 -33.5q-14 -4 -22.5 -2.5t-27.5 7.5t-28 7z" />
<glyph unicode="*" horiz-adv-x="2011" d="M808 670.5q-2 3.5 2.5 7t5.5 5.5t7.5 4.5t9.5 4t10 3t10 2t9.5 2t7.5 1.5q28 7 31 7q4 0 16 -1.5t19 -0.5q7 3 9.5 7.5t3 12.5t1.5 12q3 8 10.5 24.5t10.5 24.5q2 4 5 12q6 17 10 25t10.5 16t14.5 2.5t17 -22.5q1 -3 15 -24t18 -33q4 -11 4 -53q14 -1 34 3.5t35.5 9 t34 2.5t33.5 -15q12 -13 11.5 -24t-12 -24t-24.5 -23.5t-25 -23.5t-15 -22q1 -6 8.5 -27.5t12 -38.5t4 -35.5t-10.5 -27.5q-16 -11 -38.5 -6t-35.5 20q-3 3 -13 19t-19.5 23.5t-22.5 4.5q-10 -3 -18 -12t-15 -22.5t-12 -18.5q-31 -35 -64 -41q-4 0 -6.5 -0.5t-4.5 2t-3 3.5 t-1.5 5t-1 6.5t-1 7t-0.5 7.5q0 30 6 57q1 6 5 17.5t5 17.5q2 11 -2 20t-10 14t-16.5 12t-14.5 11q-4 3 -18.5 13.5t-25.5 20.5t-15 18q1 5 -1 8.5z" />
<glyph unicode="+" horiz-adv-x="1032" d="M82 741v41q0 27 166 27h84l67 14v140l-12 143q18 73 68 111l55 -27l-12 -227v-111q0 -29 41 -29l292 35l11 -70v-12q0 -4 -3.5 -8t-12.5 -7t-19.5 -5.5t-28 -4.5t-34.5 -4t-44 -4.5t-50.5 -4.5t-59 -5t-66.5 -6v-14l15 -387q-18 -70 -41 -70h-29q-43 30 -50.5 75 t-2.5 163q6 101 3 167t-20 66l-288 -29z" />
<glyph unicode="," horiz-adv-x="327" d="M-55 -297q54 50 99.5 148t45.5 176q0 66 -39 71q-13 0 -28 -6q3 5 12 10q6 2 19.5 14.5t23.5 12.5q8 0 10.5 -1t11.5 -1q12 0 38.5 5t27.5 5q4 0 6 -2q21 -21 21 -69q0 -51 -26.5 -118.5t-53.5 -105.5q-2 -2 -4.5 -7t-4.5 -7l-12 -10q0 -7 -13.5 -22.5t-21.5 -18.5 q-4 -4 -10.5 -12t-12.5 -13.5t-11 -9.5q-3 -3 -6.5 -4t-8.5 -1t-8 -1q0 -6 -6 -6q-6 -6 -10 -6t-11 -4t-11 -8l-5 -5q0 -5 -9 -6q-3 0 -3 2z" />
<glyph unicode="-" d="M0 621q0 1 2 3.5t4 2.5q54 -60 150 -60q35 -1 105.5 11t103.5 12q19 0 47 -4q6 1 9 2.5t7 1.5h8q37 -5 63 -18t48 -46q16 -22 16 -57q0 -8 -10.5 -32.5t-20.5 -24.5q-2 0 -6 4q4 0 4 6q0 8 -9.5 21.5t-16.5 13.5h-10q-5 0 -16.5 4t-18.5 4q-66 18 -137 18q-23 0 -64.5 -2 t-62.5 -2q-49 0 -76 6q-39 1 -60.5 24.5t-40.5 65.5q-18 31 -18 46z" />
<glyph unicode="." horiz-adv-x="366" d="M133 39q0 17 6 29q16 41 51 41l21 -3q17 -3 25 -26q6 -9 6 -25q0 -29 -17.5 -46t-50.5 -17q-5 0 -10 2t-6 2h-8q-17 14 -17 43z" />
<glyph unicode="/" horiz-adv-x="600" d="M127.5 -112.5q-1.5 33.5 2.5 65.5t13 65q49 172 148.5 516.5t148.5 516.5q4 16 14.5 70.5t21.5 100.5t28 95.5t43.5 77t58.5 24.5q19 -1 30.5 -10t15 -25.5t4.5 -32.5t-4 -40.5t-8.5 -40t-11 -41t-9.5 -33.5q-18 -66 -56 -198t-57 -199q-87 -310 -219 -766 q-1 -3 -12.5 -82.5t-32.5 -106.5q-19 -25 -53 -28q-31 -1 -47.5 18.5t-18 53z" />
<glyph unicode="0" horiz-adv-x="860" d="M43 443q1 57 2.5 94t5.5 90q13 244 88 424q22 48 111 178q4 6 12.5 9.5t20.5 6.5t18 6q1 -6 2.5 -14.5t2 -10.5t-0.5 -5q-61 -50 -80.5 -121.5t-23.5 -179.5q-13 -345 73 -598q26 -80 72 -138q47 -58 90.5 -47.5t71.5 84.5q115 295 78 606q-15 136 -31 220 q-12 63 -59.5 76.5t-88 -20t-34.5 -85.5q0 -1 6 -37q0 -27 -14 -33q-17 -3 -25 13q-8 13 -8 32q-6 67 36 132.5t104.5 103.5t119.5 37q44 -2 94 -58t62 -121q107 -540 -168 -909q-146 -197 -314 -166q-45 8 -81 29t-59.5 55t-40.5 70.5t-25.5 86.5t-13 91.5t-3.5 98.5z" />
<glyph unicode="1" horiz-adv-x="749" d="M121 66q-5 12 7.5 20.5t32.5 11.5t39.5 4.5t28.5 -0.5q52 -4 78.5 14t34.5 64q60 370 72 463q7 56 30 375q-115 -110 -116 -111t-25 -22.5t-41 -31.5t-33 -9q-26 3 -30 26q0 15 6 27q11 20 30.5 36.5t45 33.5t38.5 28q24 21 71 62t71 61q12 10 66 2t63 -22q14 -25 14 -60 q-18 -263 -39 -536q-4 -51 -14 -151t-14 -148q-6 -20 -3 -45.5t23 -38.5q17 -12 38 -17t46.5 -8t38.5 -6q43 -11 73 -32q31 -22 -3 -36q-11 -5 -39.5 1t-36.5 6q-12 0 -48.5 -3t-48.5 -2.5t-51 3.5q-128 14 -209 2q-87 -15 -165 12q-21 7 -31 27z" />
<glyph unicode="2" horiz-adv-x="899" d="M82.5 30.5q0.5 10.5 5.5 18.5q9 20 53 60q255 249 381 667q41 136 43 203q3 81 -46.5 119t-119.5 10q-10 -4 -30 -16q-37 -17 -61 -36.5t-32 -51.5q-4 -17 4.5 -49t13 -51t-10.5 -38q-29 -25 -49.5 7t-30.5 75q-24 95 43 166q64 70 192 80t213 -49q127 -91 115 -240 q-10 -100 -45 -174q-47 -100 -205 -395q-8 -15 -25 -59t-30 -64q-3 -5 -27.5 -34t-30.5 -52q4 16 50.5 -9.5t76.5 -47.5q41 -26 97 -23q6 0 21 1t24 1.5t21 3t20 6.5q13 8 19 24t-1 30q11 13 30.5 12.5t33.5 -14.5q25 -32 12 -74q-11 -33 -51 -43q-24 -6 -53.5 -6.5t-51.5 1 t-60.5 10t-54 12.5t-58.5 16t-50 14q-116 32 -164 32q-38 0 -63 -12q-10 -4 -17.5 -11.5t-15.5 -18.5t-14 -17q-2 -2 -19.5 -11.5t-34 -17t-16.5 -3.5q0 5 -1 21.5t-0.5 27z" />
<glyph unicode="3" horiz-adv-x="759" d="M84 207q-4 46 20 67q13 12 33 8.5t21 -20.5q1 -12 -10.5 -31.5t-12.5 -23.5q-6 -17 -0.5 -33t19.5 -24q16 -8 39.5 -1t60 28t37.5 22q15 7 40 22t36 21q6 4 22 12q77 59 115.5 192t3.5 220q-31 79 -102.5 111.5t-149.5 4.5q-7 -2 -46.5 -18.5t-72 -26.5t-41.5 -4 q-6 6 -6 12q-1 6 4 15.5t9.5 15.5t13.5 16t10 11q15 15 29.5 33.5t31.5 42.5t27 36q21 28 84.5 111t97.5 127q-24 9 -52.5 10.5t-50 -2t-54.5 -10t-52 -8.5q-35 -6 -72 4q-49 13 1 45q17 11 38 16t48.5 8t38.5 5q28 7 57.5 12t75 11.5l59.5 8.5q5 0 26.5 3.5t33.5 3.5 q143 0 71 -140q-47 -94 -129 -246q11 -5 78.5 -34.5t99.5 -48.5q132 -86 115 -191q-7 -41 -33 -119t-30 -92q-9 -32 -30.5 -66t-55 -76.5t-45.5 -60.5q-47 -68 -116 -112t-140 -47q-76 -2 -135 50t-60 130z" />
<glyph unicode="4" horiz-adv-x="882" d="M28 73q-6 31 3 78t20.5 90.5t25.5 89.5t17 58q66 262 101 393q17 64 133 432q10 33 61 53.5t84 6.5q19 -9 29 -22t11 -31.5t-0.5 -32t-6.5 -35.5q-12 -48 -37 -142.5t-37 -142.5q-55 -236 -88 -401q-5 -27 -11.5 -88.5t-13.5 -91.5q25 -8 85 -43t98 -37q10 34 17.5 72.5 t15.5 90.5t12 74q4 24 6 32t8 21t16.5 18t28.5 7q21 0 29 -8q4 -7 0 -35t-12.5 -64.5t-8.5 -39.5q0 -4 -8.5 -48t-14 -81.5t-1.5 -40.5q3 -3 8 -8.5t8 -8.5q1 -1 55 42q148 121 156 41v-13q0 -34 -31 -53q-24 -17 -74 -44.5t-76 -45.5t-52 -58t-33 -96q-1 -14 -1.5 -32 t-1.5 -33.5t-10.5 -25.5t-27.5 -9q-20 1 -28 13t-7 26t3.5 34t0.5 31q-2 16 4 47t3 54.5t-25 39.5q-6 4 -29 20.5t-31.5 22.5t-29 16.5t-34 13t-32 1.5t-35.5 -8q-14 -6 -27.5 -13t-30 -18t-25 -16.5t-29 -21t-25.5 -19.5q-6 -4 -21.5 -19t-28.5 -22t-26 -4q-23 3 -29 34z " />
<glyph unicode="5" horiz-adv-x="823" d="M1 766q-3 30 5 49q82 171 184 352q11 20 33 37.5t41 20.5q183 17 398 20q8 1 17.5 -5.5t22.5 -19.5t19 -18q-7 -3 -19 -11.5t-22.5 -13.5t-20.5 -6q-32 -4 -94 -6.5t-88 -5.5q-144 -10 -184 -137q-7 -25 -62 -145q21 1 51.5 4t52 4.5t40.5 1.5q135 2 227 -79t98 -212 q6 -154 -32 -332q-15 -68 -49 -122.5t-85.5 -95.5t-102.5 -69t-120 -57q-46 -20 -113.5 5.5t-97.5 68.5q-37 50 -31.5 97.5t52.5 107.5q30 43 76 75q50 38 80 25.5t55 -78.5q-79 -4 -112 -39.5t-25 -107.5q5 -47 28 -63t64 3q58 26 78 68q145 257 120 582q-6 70 -65 129 q-56 57 -96.5 57t-106.5 -53q-8 -7 -24.5 -21.5t-26.5 -22.5t-24.5 -17.5t-28.5 -14.5q-22 -7 -51 -5t-48 13q-10 7 -13 37z" />
<glyph unicode="6" horiz-adv-x="860" d="M27 418q-12 336 190 557q3 4 28 32.5t37 41t38 39.5t44.5 41t42.5 31t46 23.5t41 4.5q12 -2 22 -12t10 -23q-1 -6 -46.5 -48.5t-51.5 -51.5q-43 -61 -86 -156q-61 -145 -92 -354q-27 -188 76 -322q39 -56 106 -106q29 -21 69.5 -28.5t73.5 1.5q38 11 56.5 57t15.5 98 t-24 85q-18 29 -40 35.5t-45 -8t-43 -32.5t-43.5 -43t-35.5 -34q-25 -15 -35 -15q-26 0 -33 21q-8 22 6 47q26 60 77 110.5t109 77t119.5 10.5t102.5 -83q35 -56 30 -130.5t-51 -131.5q-61 -77 -103.5 -117.5t-91.5 -59t-98 -15t-126 23.5q-116 31 -203 159.5t-92 274.5z " />
<glyph unicode="7" horiz-adv-x="833" d="M38 957q-8 50 23 102q28 47 68 51q283 31 332 35q10 1 63.5 11t98.5 17.5t89.5 7t53.5 -13.5h2q11 -19 0.5 -54t-36.5 -83.5t-27 -50.5q-65 -155 -89 -221q-35 -97 -69.5 -199.5t-83.5 -252t-66 -200.5q-4 -10 -8 -30q-20 -54 -70.5 -78.5t-103.5 -7.5q-50 17 -60 53.5 t19 108.5q45 111 130 312.5t110 262.5q50 126 135 348q-118 13 -283 -12q-6 -1 -28.5 -4t-36 -5.5t-35.5 -8.5t-34.5 -13.5t-24 -20.5t-13.5 -30q-2 -10 -2 -33q-4 -21 -20 -24q-29 -5 -34 33z" />
<glyph unicode="8" horiz-adv-x="798" d="M115 791q-45 114 8 198q125 206 344 209q57 2 80.5 -30.5t1.5 -86.5q-9 -23 -19.5 -46.5t-25 -51t-22 -42.5t-26.5 -49.5t-24 -43.5q-16 -28 -20.5 -36t-10 -25t-4.5 -20.5t7 -18t14 -23t26 -29.5q26 -27 78 -79.5t91.5 -95.5t70.5 -85q48 -65 57 -143.5t-17 -146.5 t-84 -121.5t-136 -71.5q-102 -26 -199 32.5t-133 159.5q-47 122 10 250q25 58 34.5 104.5t-2.5 99.5t-52 99q-22 24 -47 93zM252 250q17 -147 135 -213q58 -33 102 8q46 43 51 106.5t-36 114.5q-17 19 -65 71t-72 81q-2 2 -17 20.5t-32 39t-27 34.5q-14 21 -12 23 q-46 -155 -27 -285zM273 960q13 -59 67 -118q92 179 109 219q6 12 7 33.5t-5 23.5q-30 17 -70 6q-63 -17 -92 -61t-16 -103z" />
<glyph unicode="9" horiz-adv-x="933" d="M55 793q7 51 32 114t42.5 95.5t58.5 105.5q17 30 66.5 69.5t60.5 51.5q33 34 78.5 36.5t87.5 -21.5t75.5 -74.5t43.5 -114.5q0 -2 -2.5 -5.5t-8.5 -11t-11 -14.5q-20 28 -56 80t-51 72q-108 -105 -143 -256.5t20 -284.5q78 35 139 95.5t99.5 129.5t72.5 162q31 87 52 111 q15 19 42 31t40 5q20 -10 36.5 -39.5t18.5 -56.5q3 -74 -23 -178q-86 -328 -86 -715q-1 -21 -3 -44.5t-5 -52t-4 -44.5q-7 -106 -50.5 -135.5t-109.5 26.5q-1 20 -9 151t-9 198q-2 52 -2 110t1 129.5t1 112.5q-18 -9 -55.5 -30t-55.5 -30q-70 -45 -78 -49q-51 -22 -99 -23 t-89.5 22.5t-71 61t-42 93t-3.5 117.5z" />
<glyph unicode=":" horiz-adv-x="272" d="M78 66q0 65 57 71q21 0 36 -14t15 -37q0 -29 -18 -47.5t-49 -18.5q-2 0 -9.5 2.5t-15.5 2.5q-16 13 -16 41zM84 301q0 68 78 68q14 0 22.5 -18t8.5 -36q0 -29 -18.5 -45t-49.5 -16q-5 0 -10 2t-6 2h-9q-16 13 -16 43z" />
<glyph unicode=";" horiz-adv-x="192" d="M-53 -350q0 8 2 12q57 59 98 153t41 162q0 64 -39 70q-2 0 -4.5 -1t-5.5 -1q-8 -4 -19 -4q0 3 46 31q6 4 16 4h16q11 0 15 4q16 8 30 8q47 0 47 -70q0 -94 -79 -227q-2 -2 -4.5 -7t-4.5 -7l-10 -8q-1 0 -5.5 -8t-6.5 -9q-1 -1 -5 -7t-8 -10.5t-8 -4.5t-19.5 -18 t-19.5 -21q-3 -3 -6.5 -4t-8 -1t-7.5 -1l-6 -7q-4 -4 -20 -13.5t-17 -8.5zM41 248q0 27 17.5 49t45.5 22q19 0 32.5 -15.5t13.5 -37.5q0 -56 -68 -63q-2 0 -9.5 2t-15.5 2q-16 13 -16 41z" />
<glyph unicode="&#x3c;" horiz-adv-x="544" d="M14 436q27 3 157 109t263 231l-31 -61q-7 -6 -14 -15t-11 -15t-12 -19t-10 -17q-10 -26 -47.5 -73t-48.5 -64q-13 -16 -40.5 -43t-39.5 -43q42 -31 72.5 -80t34.5 -98q3 -7 19 -32t22 -44q0 -3 -2 -13t-2 -14q0 -2 2 -6.5t2 -5.5q0 1 5.5 -16.5t11 -38t5.5 -25.5 q-4 0 -6 4q-210 311 -330 379z" />
<glyph unicode="=" horiz-adv-x="892" d="M102 489q0 6 13.5 14.5t23.5 8.5q334 35 580 55q11 0 24 -6t29 -15.5t25 -13.5q-4 -5 -11.5 -17t-12 -19t-12.5 -15t-16 -12q-41 -20 -106 -27q-81 -8 -240.5 -22t-218.5 -19q-32 14 -59 37q-19 16 -19 51zM121 754q0 10 14 22.5t25 14.5q339 32 567 47q11 1 23 -6 t27.5 -20.5t21.5 -18.5q-8 -6 -21 -19t-24.5 -21.5t-22.5 -9.5q-135 -16 -541 -49q-24 1 -38 13q-13 8 -22.5 22t-8.5 25z" />
<glyph unicode="&#x3e;" horiz-adv-x="851" d="M45 786q25 -35 60.5 -71.5t62 -59t65 -54.5t50.5 -42q28 -27 92 -72t90 -55q-51 -26 -113.5 -92t-104 -123.5t-114.5 -163.5l-4 2q1 -1 3.5 3t5 10t4 10.5t1.5 5.5q0 30 7 51q4 2 4 12q0 1 -2 7t-2 10q0 24 25.5 64.5t25.5 66.5q12 37 38.5 73t57.5 58q-21 21 -35 39 q-30 19 -62.5 61.5t-71 104.5t-54.5 84q-2 0 -8 10.5t-12 28t-9 32.5z" />
<glyph unicode="?" horiz-adv-x="952" d="M205 1069q-22 110 26 189t156 114q135 46 303 -14q50 -17 80.5 -56t36.5 -90q13 -134 -9 -243t-98 -199q-47 -54 -94 -78q-94 -49 -123.5 -119t-27.5 -188q0 -12 2.5 -36.5t3 -40.5t-1 -37t-9.5 -31.5t-21.5 -17t-38.5 -0.5t-60 24q-13 6 -25 24.5t-10 32.5q0 9 1 22 q1 29 2 31l5 50q1 6 3.5 34.5t3.5 35t5 27.5t9 31t14.5 26t21.5 30q19 22 63.5 59t63.5 58q14 16 53.5 49.5t64.5 63t34 61.5q21 76 10 182q-19 142 -88 211q-40 35 -91 34t-99.5 -30t-71.5 -70q-19 -34 -16 -61q0 -39 24 -60q6 -5 22.5 -13t25.5 -17t10 -23q2 -15 -9 -30 q-16 -19 -34 -25q-40 -11 -75.5 19t-41.5 71zM281 -104q-8 40 12 90t47 57q25 7 66 -26t49 -66q10 -41 -11.5 -80t-58.5 -47q-37 -6 -67 14.5t-37 57.5z" />
<glyph unicode="@" horiz-adv-x="1484" d="M162 172q-116 269 6 490q63 114 136.5 198.5t170.5 140.5q212 120 387 115q169 -7 283 -123q72 -72 112.5 -131.5t49.5 -134.5q28 -211 -58 -375q-47 -92 -162 -98q-105 -6 -172 156q-86 -58 -129 -80q-84 -45 -151 -60q-82 -17 -113 72q-29 87 -10 160q47 180 180 332 q24 28 76 51q24 12 36 16.5t34 3.5t39 -16q68 -61 51 -131q-5 -18 -17 -48.5t-14 -37.5q-4 1 -12.5 2t-12.5 2q-20 79 -26 102q-43 0 -75.5 -21t-47.5 -59q-55 -145 -25 -329q152 39 213 176q38 89 140 104q48 5 65 -12t6 -64q-6 -24 -22.5 -76t-22.5 -81q-4 -17 -8 -90 q86 0 105 61q23 71 31.5 130.5t-0.5 131t-42 137.5q-66 133 -182 186.5t-256 18.5q-378 -100 -465 -510q-32 -152 35.5 -307.5t206.5 -257.5q116 -86 263 -65t212 131q6 9 35 34q21 -22 24.5 -45t-1 -34t-17.5 -37q-52 -93 -176 -107q-139 -19 -270 16.5t-240.5 129 t-169.5 233.5z" />
<glyph unicode="A" horiz-adv-x="1079" d="M18 -35q-27 135 -27 271q0 216 68 434q111 354 369 602q94 86 165 86h3q40 0 74 -19.5t56 -51.5q24 -31 36 -69q12 -35 11 -72v-6q-1 -40 -15 -73q-3 -9 -10 -16q-8 -8 -17 -2q-6 11 -2 47q2 12 -0.5 24.5t-8 27.5t-7.5 23q-15 57 -49 76q-17 9 -36 9q-25 0 -53 -15 q-29 -15 -67 -59q-214 -254 -300 -585q-50 -192 -50 -381q0 -138 26 -275q22 -108 80 -117q7 -1 15 -2q35 0 67 33q22 28 43 79q62 151 188.5 452.5t188.5 451.5q12 28 19.5 44t23 36t33.5 32q24 18 51 18q16 0 32 -6q41 -14 41 -54q0 -5 -1 -11q-6 -47 -26 -135.5 t-26 -124.5q-18 -123 -32 -287q-11 -150 -11 -244q0 -112 9 -151q6 -27 37 -41.5t55 -1.5q4 3 10.5 9t12.5 9.5t12 3.5q22 3 30 -24q1 -3 1 -10q0 -11 -3 -31q-8 -34 -46 -48q-23 -9 -46 -9q-15 0 -29 4q-84 19 -118 174q-30 140 -41 258q-2 17 -13 131q0 3 -6.5 51t0.5 49 q-56 -125 -94 -207q-23 -48 -60.5 -140t-52.5 -126q-15 -35 -27.5 -60.5t-32.5 -62t-41 -63.5t-46.5 -53.5t-56 -42.5t-62.5 -21q-11 -2 -23 -2q-37 -1 -71 17q-46 22 -76 65q-47 61 -74 182z" />
<glyph unicode="B" horiz-adv-x="1103" d="M-37 1124q-1 12 -1 24q0 43 9 79q3 10 18.5 21.5t26.5 11.5q14 -2 32 -12.5t22 -20.5q18 -67 41 -183q3 -4 0.5 -30t-2.5 -33l10 -10q9 5 12 10q10 14 67 92.5t91 118.5q79 95 182 141q31 13 63 14q42 1 86 -23q78 -40 93 -116q3 -15 3 -30q0 -57 -38 -125 q-9 -16 -29.5 -52.5t-37.5 -63.5t-36 -50q-20 -25 -43.5 -48t-64.5 -60t-49 -44q-12 -10 -12 -13.5t16 -10.5q13 -6 44.5 -19.5l49 -21t42.5 -20.5t44 -25q92 -58 162 -166q9 -14 45.5 -83.5t52.5 -90.5q2 -3 11 -2t12 4q12 13 79 79.5t83 84.5l41.5 41.5t44.5 46.5 q4 5 11 14t11 14q20 30 64 43q21 8 25 -2q1 -4 2 -9q0 -7 -3 -17q-6 -30 -49 -88q-21 -30 -37 -41q-5 -5 -19 -12.5t-18 -12.5q-21 -27 -101.5 -120t-103.5 -124q-12 -16 -4 -41q25 -91 27 -125v-12q0 -37 -12 -117q-26 -168 -156 -264q-76 -57 -155 -57q-1 0 -1 -1 q-78 0 -137 68q-36 44 -36 101q0 43 20 94q11 27 35 57t36 54q2 3 9 9.5t10 10.5q113 131 151 178q14 18 14 37.5t-14 40.5q-22 34 -76.5 122t-86.5 134q-19 28 -31 44t-32.5 39t-42.5 39t-48 26q-28 11 -74 11q-31 0 -69 -5q-32 -2 -115 -33q-7 -3 -14 -12t-7 -15 q9 -162 17 -225q2 -22 17 -60t18 -53q3 -16 2 -47t2 -47q2 -17 28 -127q4 -21 11.5 -65t11.5 -66q0 -8 -6 -14q-13 -17 -45.5 -21t-61.5 7t-32 32q-41 270 -56 398q-10 101 -22 296q-14 185 -15 246q-1 20 -1 62.5t-1 62.5q-1 29 -5 88.5t-5 89.5zM123 727q-3 -10 -3 -17 q0 -9 5 -14q9 -8 33 0q95 31 158 62t110 82q5 5 15.5 14.5t16.5 15.5t12.5 15t10.5 18q8 19 14 41.5t12.5 51t10.5 42.5q29 97 31 103q-27 73 -31 80q-12 25 -44 29q-5 1 -10 1q-25 0 -44 -16q-44 -40 -58 -57q-13 -18 -137 -191q-3 -5 -10.5 -13t-12.5 -15t-7 -13 q-49 -146 -72 -219zM518 -291q10 -43 52 -59q19 -7 39 -8q24 0 48 12q106 42 144 158q9 30 11 58q0 8 1 16q-1 17 -3 29q-4 17 -12 49.5t-12 53.5q-2 11 -10.5 29t-9.5 21q-30 -26 -49 -48q-8 -10 -23.5 -31.5t-23.5 -31.5q-12 -15 -42 -45t-44 -53q-7 -11 -24 -34.5 t-26 -38t-15 -36.5q-3 -12 -3 -23q0 -9 2 -18z" />
<glyph unicode="C" horiz-adv-x="921" d="M-2 217v18q0 41 4 81q4 50 14 122.5t13 96.5q4 38 14.5 76.5t29 89.5t25.5 75q26 88 76 180q31 57 57.5 98.5t64.5 92.5t82.5 88t92.5 57q37 17 70 17q39 0 73 -23q88 -54 130 -154q30 -71 30 -145q0 -31 -4 -61q-16 -106 -86 -183q-16 -16 -34.5 -23t-35.5 3 q-22 16 -6 49q6 12 35 41q40 42 60 98q15 43 15 87q0 13 -1 26q-9 95 -82 168q-38 33 -64 33h-3q-26 -2 -68 -37q-28 -24 -53.5 -58t-42.5 -63t-37.5 -79t-29 -73.5t-27.5 -81.5t-23 -71q-36 -103 -56 -201q-39 -175 -39 -322q0 -85 13 -161q1 -5 5.5 -44t8 -56t15 -43 t28.5 -39q28 -18 63 -18q17 0 35 4q56 12 89 48q19 19 70.5 65t76.5 73q27 30 82.5 89t83.5 89q54 58 178 254q22 31 33 37q12 12 24 4q8 -5 8 -18q0 -9 -4 -21q-13 -35 -20 -47q-25 -56 -79 -137.5t-99 -133.5q-57 -68 -70 -82q-2 -2 -31 -29t-36 -42q-123 -132 -191 -181 q-63 -48 -147 -50h-8q-80 0 -154 50q-73 55 -119.5 162t-48.5 205z" />
<glyph unicode="D" horiz-adv-x="1257" d="M-10 -186q6 62 47 75q23 8 66.5 16t54.5 11q8 2 16 7t8 11q20 150 44 442.5t42 432.5q26 210 41 287q1 8 6.5 12t14.5 5t17 1t19.5 -1t16.5 -1q55 0 57 -37q2 -33 2 -59q0 -39 -4 -62q-5 -31 -25 -144.5t-26 -176.5q-16 -191 -33 -359q-1 -17 -1.5 -82t-6.5 -100 q-1 -7 -5 -36.5t-5 -41t-3 -35t-1 -42t4 -37.5q17 -3 50 -10.5t50 -10.5q13 -2 47.5 -9.5t46.5 -9t39 -5.5t42 -3.5t38.5 2.5t44 8t43.5 15q102 46 148 195q22 75 26 213q2 46 2 90q1 163 -31 309q-40 185 -167 350q-18 24 -49 69t-49.5 69t-47.5 53t-63 44t-76 19 q-14 1 -28 1q-72 0 -136 -39q-78 -47 -110 -120q-22 -49 -22 -100q0 -54 24 -110q1 -3 4 -10l4.5 -10.5t3.5 -10t3 -10.5t0 -9.5t-3 -9.5q-7 -20 -33 -22t-45 14q-35 26 -48 90q-10 49 -10 92q0 13 1 25q8 76 57 141t120 101q72 35 158 45q19 2 38 2q66 0 131 -25 q12 -5 43 -16.5t47 -17.5t39.5 -18t42.5 -24q18 -11 37.5 -29.5t28.5 -28t35.5 -42.5t31.5 -39q105 -130 163 -238.5t91 -248.5q16 -78 18 -117q4 -58 8 -178q0 -91 -43 -199q-9 -27 -22 -53q-61 -129 -168 -195q-91 -56 -186 -73q-46 -8 -97 -8q-54 0 -112 9q-8 1 -40 7 t-44 7.5t-44 4.5t-40 -2q-15 -4 -22.5 -14t-13.5 -31t-7 -25q-19 -37 -27 -49q-21 -27 -53 -47q-25 -16 -50 -15q-6 0 -12 1q-32 4 -68.5 25t-58.5 46q-28 32 -28 80q1 9 2 19zM76 -221q2 -13 9.5 -23t15.5 -12h4q6 0 10 4q16 18 37 66l1 1q0 2 -4 6q-5 5 -8 5q-13 4 -23 4 q-16 0 -28 -9q-16 -11 -15 -31q0 -5 1 -11z" />
<glyph unicode="E" horiz-adv-x="714" d="M-28 232q1 56 8 108q22 186 98 285q71 93 262 133q8 1 11.5 2.5t7 6.5t-4.5 13q-43 61 -47 181q0 135 35 223q12 31 30 55.5t42 40.5q22 15 49 16h5q31 -2 64 -26q56 -43 76 -88q4 -9 20 -37t23 -47t8 -39q0 -1 1.5 -2t1.5 -2q5 -27 -2.5 -45t-22.5 -15q-11 2 -16.5 8.5 t-6 14t-0.5 15.5v14q-1 18 -8 38t-12 29.5t-21 34.5t-18 29q-2 2 -10 2.5t-10 -2.5q-21 -25 -36 -53.5t-24.5 -67.5t-14 -61t-11.5 -70q-3 -17 -3 -38t1 -32t5 -39t5 -33q6 -32 37 -24t51 -4q7 -6 12.5 -20t3.5 -25q0 -7 -10.5 -14t-20.5 -9q-18 -3 -61.5 -8t-65.5 -10 q-61 -14 -112.5 -68.5t-80.5 -119.5t-40 -130q-5 -36 -5 -73q0 -66 17 -135q27 -106 90 -199q37 -60 84 -82q27 -14 55 -6.5t51.5 23t46 41t38 48t26.5 43.5q40 79 103 219q96 214 125 306q3 20 16 30q6 5 16.5 3.5t14.5 -9.5q3 -4 3 -10q0 -8 -5 -21q-14 -33 -27.5 -102 t-25.5 -100q-15 -38 -48 -107t-47 -102q-24 -55 -39 -85.5t-41 -74.5t-56 -76.5t-66 -56.5q-50 -34 -108 -52q-46 -14 -98 -13q-12 1 -26 1q-66 4 -123 39q-49 30 -84 81.5t-52.5 107.5t-25.5 121q-7 58 -7 108v13z" />
<glyph unicode="F" horiz-adv-x="733" d="M-102 1327q-1 5 -1 10q1 18 9 34q10 21 31 28q17 5 33.5 0t40.5 -19t32 -18q32 -15 67 -15q44 0 95 23q33 15 99.5 32.5t92.5 27.5q19 7 58.5 24.5t70 29t60.5 19.5q26 7 80.5 23t86.5 25t78.5 20.5t86.5 19.5q33 11 78 11t71 -27q20 -20 33.5 -43.5t17.5 -52.5v-8 q0 -24 -20 -41q-19 -15 -46.5 -12.5t-37.5 22.5q-5 9 -8 32.5t-9 34.5q-15 30 -55 30q-26 0 -63 -13q-51 -19 -145.5 -52.5t-117.5 -41.5q-72 -26 -112 -52q-7 -4 -24.5 -12t-29.5 -15.5t-20 -17.5q-11 -12 -14.5 -26t-3.5 -33.5t-2 -30.5q0 -2 -8.5 -36t-10.5 -54 q-10 -110 -10 -264q43 24 74 39q107 52 195 76q50 13 100 14q39 0 77 -8q26 -5 21 -31t-29 -29q-129 -9 -241 -51q-64 -25 -197 -96q0 -29 2 -43q0 -62 -4 -180q-1 -37 -3 -117.5t-3 -114.5q-11 -252 -56 -420q-13 -48 -54 -80t-89 -35h-10q-43 0 -84 23q-27 17 -66 62 q-16 26 -16 28q-3 7 -0.5 16.5t8.5 12.5q19 10 35 -10q4 -4 10 -15.5t10 -15.5q18 -21 44 -21t47 19q29 25 41 98q23 195 26 350v199q1 23 5 77q4 44 3 72v11v8q-47 -19 -83 -19q-56 0 -87 44q-9 13 4 25.5t27 4.5q15 -9 33 -10t39 5.5t36 13t37 18.5q0 12 3 27 q16 270 24 403q-63 -50 -149 -50q-6 1 -12 1q-94 4 -158 61q-41 41 -43 76z" />
<glyph unicode="G" horiz-adv-x="968" d="M-31 543q22 132 51 234.5t80 193.5q14 26 31 54.5t29 47.5t36 54.5t31.5 47t37.5 53.5t34 48q32 48 77.5 81t112.5 66q22 11 55 11q21 0 48 -4q66 -13 96 -46q34 -39 47.5 -55t31.5 -53t19 -72q0 -7 0.5 -21.5t1 -23.5t-1.5 -20t-6 -19q-56 -108 -114 -184 q-9 -13 -32.5 -20.5t-41.5 -4.5q-38 8 -63 32t-29 63q-1 7 4 18.5t10 13.5q34 4 51 -10q29 -23 48 -20t34 34q41 86 53 150q4 18 4 34q0 50 -40 86q-37 32 -82 32q-22 0 -45 -7q-13 -4 -17 -10q-12 -17 -36.5 -48.5t-39.5 -51.5t-34 -48.5t-33 -54.5q-28 -53 -52.5 -119.5 t-36.5 -111.5t-33 -130t-30 -118q-65 -241 -86 -391q-4 -30 -4 -63q0 -81 21 -185q9 -49 55 -72q24 -12 51 -12q24 0 51 10q34 12 65 34t49.5 38.5t47 55t36.5 50.5t38 60q96 149 123 287q6 32 29 52.5t53 14.5q20 -3 41 -24t26 -41q0 -3 1 -8.5t1 -8.5q8 -44 17.5 -127 t11.5 -98q22 -212 27 -342v-11q0 -25 -3 -65q-4 -50 -4 -73q0 -112 -14 -183q-23 -128 -42 -177q-28 -70 -75 -116q-17 -17 -33.5 -63t-21.5 -55q-42 -73 -95 -76h-5q-51 0 -105 61q-52 58 -55 123q-1 6 -1 13q0 58 28 116q29 72 76.5 156.5t76.5 129t96 144.5q11 18 11 33 q-4 61 -12.5 182t-12.5 181q0 3 -4 11t-4 9q-2 -3 -7 -9t-7 -9q-29 -50 -48 -80.5t-50 -73.5t-58 -72.5t-64.5 -60t-78.5 -51.5q-74 -37 -134 -37q-65 0 -114 43q-48 41 -84 117q-82 167 -82 372q0 91 16 189zM498 -754q4 -10 8 -24t7.5 -23.5t8.5 -17.5q25 -39 50 -39 t49 43q21 39 35 79t23.5 95t13 78.5t9.5 98.5l7 86q0 2 -1 4q-2 3 -4.5 7.5t-3.5 6.5q-11 -7 -16 -15q-12 -20 -41 -67t-50 -82.5t-38 -69.5q-12 -23 -21.5 -50t-19.5 -60.5t-16 -49.5z" />
<glyph unicode="H" horiz-adv-x="1255" d="M-162 1059q5 59 36.5 112t82.5 78q94 48 197 54h15q42 0 70 -14q32 -17 68 -58q48 -54 74.5 -118.5t50.5 -158.5q17 -63 53 -262q5 -27 13.5 -80t13.5 -80q3 -19 18 -4q89 89 132 134q83 80 163 163q15 20 15 31q0 22 -2 122q-1 46 -2 74q0 35 2 46q3 65 14 114 q2 12 4.5 33.5t5.5 39.5t8 34q20 53 86 95q44 28 80 28q19 0 37 -8q55 -24 77 -64q18 -33 18 -80q0 -11 -1 -22q-6 -68 -59 -191q-13 -31 -51 -77t-49 -68q-19 -34 -19 -98q0 -114 8 -340q9 -231 19 -299q2 -13 11.5 -119t21 -179.5t28.5 -113.5q30 -75 80 -125 q26 -26 69 -48q44 -22 94 -28q11 -1 21 -1q37 0 68 18q29 17 45 47t12 61q-2 15 -11 30.5t-23 18.5q-10 3 -35.5 -5.5t-36.5 -0.5q-20 15 -3.5 45t40.5 41q24 12 55 8t49 -20q16 -13 25 -49q6 -23 6 -41q0 -10 -2 -17q-2 -8 -9.5 -40.5t-15 -52.5t-18.5 -38q-21 -32 -57 -48 t-82 -16t-80.5 4t-78.5 12q-4 1 -5.5 1.5t-4.5 1t-5 0.5q-70 14 -127 59t-93 105q-43 73 -55 125q-9 36 -17.5 106.5t-16.5 156.5t-11 108q-6 51 -11.5 146t-8.5 132q-2 28 -2 75q0 12 0.5 25t0.5 25q0 47 -2 72q-1 8 -7.5 24.5t-6.5 26.5q-13 -11 -37 -33.5t-37 -34.5 q-4 -4 -30 -33t-41 -44q-96 -104 -140 -156q-4 -5 -6.5 -12.5t-3 -13t-1.5 -15.5t-1 -14q-3 -49 -8 -148t-8 -149q-9 -139 -70 -277q-58 -136 -164 -203q-27 -16 -61 -13.5t-53 24.5q-24 29 -26 88v18q0 47 7 78q9 89 39 174q46 130 98 221q6 11 28.5 43t29.5 52 q15 36 15 84q0 11 -1 22q-10 232 -14 277q-3 60 -29 219q-35 185 -125 270q-38 35 -94 45q-17 3 -33 2q-39 0 -78 -16q-36 -18 -53.5 -52t-17.5 -73q0 -41 16.5 -75.5t52.5 -41.5q12 -2 25 -12.5t14 -20.5q2 -14 -17.5 -23t-39.5 -5q-62 15 -91 65q-25 43 -25 96q0 9 1 19z M199 -317q5 -32 24 -37q3 0 5 -1q15 0 26 15q22 26 31 64q13 68 32 188q2 10 10.5 53t12 70t2.5 53q0 17 -3 25t-11 4q-13 -8 -21 -39q-17 -35 -35 -84q-28 -66 -42 -105.5t-26 -97.5q-8 -38 -7 -73q0 -18 2 -35zM997 1038q0 -2 3 -6.5t4 -5.5q8 4 12 8q4 10 16 33t17 37 q45 99 51 153q2 14 2 29q0 29 -8 60q-4 13 -11 13q-13 0 -36 -44q-14 -25 -17 -37q-8 -40 -33 -240z" />
<glyph unicode="I" horiz-adv-x="612" d="M-186 -49q-2 10 -2 22q0 39 23 96q30 75 67 95q9 4 22 4q24 0 62 -12q60 -20 67 -43q1 -4 -11.5 -15t-23.5 -14q-13 -8 -41 2q-32 14 -49 0t-28 -47q-10 -29 -10 -54q0 -69 71 -120q8 -5 28.5 -24.5t37 -26.5t36.5 -2q39 2 69.5 25t37.5 59q41 190 49 278q3 48 8 428 q6 36 6 37q0 43 -34 80q-78 87 -103 126q-32 50 -43 101q-5 23 -5 47q0 92 77 187q28 33 83.5 97t82.5 97q19 22 24 41q7 22 19.5 35.5t33 20t33 8.5t39.5 4h5q19 0 31 -14q14 -16 11 -37q-5 -23 -18 -68.5t-18 -67.5q-28 -130 -31 -166q-4 -44 -6 -95t-3.5 -112.5 t-2.5 -95.5q0 -6 4 -18q8 3 16 8q5 5 16 13t19.5 15t13.5 15q11 14 27.5 41t23.5 37q3 4 15 10.5t16 9.5q1 -5 6 -14.5t7 -17.5q1 -4 2 -7q0 -2 -1 -4q-34 -78 -65 -118q-13 -16 -44.5 -40t-43.5 -40q-4 -4 -6.5 -12t-3 -14.5t-1.5 -18t-1 -15.5q-10 -214 -13 -262 q-12 -218 -24 -327q-18 -192 -109 -295q-12 -12 -43 -21q-61 -10 -74 -10h-2q-14 1 -54.5 1t-68 4t-49.5 15q-130 63 -157 189zM115 970q3 -18 4 -28.5t9 -25.5t13 -24t16 -23t18 -22t19 -22t19 -22l18 -12q9 18 9 24q1 16 1.5 67t2.5 79q1 11 24 237q1 9 2 26t2 25 q-6 -6 -17 -17.5t-17 -17.5q-2 -4 -8 -8.5t-7 -5.5q-10 -16 -44 -55q-33 -39 -49 -71q-13 -27 -13 -60v-13q-3 -8 -3 -18q0 -6 1 -13z" />
<glyph unicode="J" horiz-adv-x="1009" d="M-28 914q3 54 34 94q27 38 77.5 61.5t92.5 30.5t105 12q183 12 374 27q72 4 107 22q10 6 20.5 14t16.5 14t16.5 19.5t13.5 18t14.5 22t12.5 19.5q17 25 29 40t32 31t41 23q13 4 25 4l45 -12q35 -20 35 -54q1 -24 -14 -42.5t-44 -40t-40 -33.5q-44 -46 -52 -162 q-8 -91 -24.5 -274.5t-24.5 -274.5q-24 -265 -57 -393q-29 -122 -84 -221q-19 -34 -32.5 -54.5t-36.5 -43.5t-50 -37q-43 -21 -62 -29t-54 -17q-32 -8 -63 -8h-7q-110 0 -191 72q-80 67 -107 178q-13 51 -13 100q0 58 18 113q18 67 59.5 119.5t98.5 71.5q27 9 54 9 q37 0 73 -17q65 -29 77 -91q4 -15 4 -28q0 -36 -26 -62q-15 -19 -40.5 -23.5t-47.5 7.5q-20 11 -27 37t6 45q8 -4 23.5 -12.5t23.5 -12.5q17 19 8.5 46t-32.5 38q-15 6 -30 6q-31 0 -66 -22q-73 -52 -80 -154q-1 -13 -1 -27q0 -64 27 -151q31 -94 76 -137q29 -29 69 -41 q18 -5 36 -5q21 0 41 7q26 8 47.5 31.5t32.5 44.5t26 55q104 264 158 600q33 207 65 625q-87 -7 -260 -21.5t-260 -21.5q-99 -8 -141 -43q-36 -33 -36 -86q0 -4 1 -8q2 -58 43 -89q27 -20 55 -14q15 5 24 18.5t5 26.5q-3 8 -15 20.5t-14 20.5q-3 10 4.5 21t18.5 14 q23 9 45 -10q27 -20 34 -56q1 -11 1 -21q0 -25 -11 -46q-15 -28 -46 -46.5t-66 -21.5q-7 -1 -14 -1q-42 0 -82 22q-47 24 -72 67q-22 39 -22 86v11zM967 1266h4q5 4 15 13t15 13l-2 6q-2 -1 -5.5 -1.5t-5.5 -1t-3 -1.5q-5 -6 -18 -28z" />
<glyph unicode="K" horiz-adv-x="929" d="M-185 1105q0 4 1 11q14 24 21.5 36t22.5 30t32 27t38 12q8 1 17 1q27 0 53 -8q27 -13 54.5 -12.5t51.5 23.5q48 48 91 69q18 10 41 10q15 0 34 -4q9 -3 18 -18t9 -27q18 -179 23 -297q1 -10 1 -32q0 -55 -4 -183q0 -6 3 -17t4 -15q2 1 12 7t14 11q118 165 140 199 q31 45 60 101.5t46.5 98t45.5 111t42 102.5q3 5 9 10t16 10.5t14 8.5q2 -5 8.5 -16.5t9.5 -20.5t0 -14q-68 -176 -98 -234q-70 -139 -196 -352q-12 -22 -62 -61q-19 -13 -21.5 -23t13.5 -31q26 -31 71 -92.5t62 -83.5q23 -29 45.5 -62.5t39 -59.5t39.5 -67.5t34.5 -63 t36.5 -69.5t34 -65q30 -57 123 -190q38 -55 79 -68q15 -5 32 -4q31 0 69 14q4 1 9.5 0t13.5 -3l12 -3q-2 -5 -5 -17t-6.5 -19.5t-8.5 -10.5q-55 -35 -107 -35h-10q-56 4 -106 60q-58 62 -136 192q-121 197 -170 293q-34 66 -80.5 125.5t-113.5 134.5q-5 5 -17 13 q-4 -12 -4 -21q-3 -52 -10 -156.5t-10 -156.5q-1 -16 -2 -68t-6 -80q-7 -41 -26 -116t-23 -95q-14 -61 -80 -127q-30 -29 -72 -41q-21 -6 -44 -7q-22 0 -44 6q-46 12 -78 51q-2 3 -13 15t-14 16.5t-10.5 15t-9.5 17.5t-4.5 17.5t-1 21t5.5 21.5q5 13 8.5 18.5t11.5 11 t21 5.5q11 0 32 8.5t29 10.5q26 5 29 0q19 -24 10 -39q-3 -8 -17 -19.5t-17 -15.5q-12 -17 -12 -32.5t12 -28.5q25 -29 49 -13q9 5 16.5 17t12 23.5t8.5 30t6 29t4.5 29t3.5 21.5q9 44 12 88q10 82 14 250q13 652 13 901q-18 1 -45.5 -0.5t-51 -0.5t-45.5 9q-25 9 -49 -2 t-37 -39q-10 -25 -14 -27q-9 -6 -29 -11.5t-22 -6.5q-2 5 -6 17q-6 16 -5 21z" />
<glyph unicode="L" horiz-adv-x="704" d="M-133 -70v12q0 51 31 91q35 45 98 65q37 12 74 12q26 0 51 -6q30 -9 43 -2q10 8 18 23q19 41 30.5 93t15.5 86t9 101t7 91q2 20 10 84.5t10 99.5q2 16 2 49q2 16 2 53l-6 105q-8 -7 -17.5 -10t-21 -4t-18.5 -3t-22.5 -11t-24.5 -11q-42 -14 -86 -14q-15 0 -29 2 q-23 0 -39 8q-20 16 -14 30q3 13 26 20q5 1 11.5 1.5t14 0t11.5 -1.5q5 0 10 1q85 0 164 47q2 1 18.5 6.5t20.5 9.5q3 4 3 13.5t-1.5 21.5t-1.5 15q8 66 8 98q4 99 33 164q27 66 84 116q66 56 128 56q12 0 24 -2q41 -9 67.5 -42t28.5 -71v-7q0 -64 -51 -134 q-36 -55 -82 -101q-37 -37 -45 -53q-12 -28 -12 -69q-1 -55 5 -213q4 -102 4 -174q0 -39 -1 -70q-7 -267 -103 -445q-18 -41 -8 -57l16 -16q134 -95 302 -187q70 -38 104 -45q21 -5 41 -4q40 0 72 19q5 3 21 15t26 17q14 5 30 1q20 -5 19 -20q0 -7 -6 -20q-31 -49 -97 -70 q-45 -14 -92 -14q-22 0 -45 3q-101 16 -235 106q-12 8 -50 35.5t-56 40t-50 31t-61 30.5q-12 4 -21 4q-6 -2 -14 -10q-10 -10 -45 -49.5t-60 -56.5q-44 -28 -100 -28h-19q-68 6 -112 46q-43 40 -47 98zM-72 -72q-1 -5 0 -9q0 -34 45 -52q12 -4 25 -4q45 0 94 49 q9 9 35.5 59.5t13.5 53.5q-11 1 -32.5 5t-32.5 5t-29.5 -0.5t-36.5 -7.5q-29 -13 -54 -42t-28 -57zM453 1094q17 20 41 56.5t34 49.5q5 8 23 34.5t27 41.5q5 5 8 14q7 10 10 23q1 5 1 9q0 17 -13 28q-15 13 -35 13q-7 1 -13 -1q-28 -6 -42 -25q-34 -37 -39 -127q-1 -9 2 -36 t3 -49t-7 -31z" />
<glyph unicode="M" horiz-adv-x="1728" d="M4 952q32 74 63.5 125t77.5 90q40 37 95.5 66t109.5 41q31 8 60 8q97 0 170 -86q76 -83 76 -215q0 -45 -9 -96q-15 -81 -29 -131q-2 -10 -11 -29.5t-11 -26.5v-16q11 5 12 8q77 112 164 172q42 28 91 28q17 0 34 -3q12 -2 27 -17t16 -28q5 -22 8 -47.5t5.5 -57.5t4.5 -49 q0 -3 1.5 -8t1.5 -8q1 1 4 3.5t5 4.5t3 4q11 21 40.5 82.5t49.5 93.5q70 122 113 168q20 23 60.5 66t61.5 65q43 48 123 96q22 11 61 15q23 3 42 3q13 0 24 -1q32 -3 53.5 -21.5t30.5 -41.5t11 -57.5t0.5 -58t-5.5 -55.5q-7 -42 -11 -118.5t-7 -104.5q-4 -34 -14 -99 t-11 -75q-36 -257 -45 -338q-14 -152 -15 -271q0 -65 5 -120q2 -25 6 -51t13 -57.5t22 -55t32.5 -44t44.5 -25t58 3.5q26 8 29.5 28.5t-10.5 38.5q-1 1 -2 4q-14 33 2 37q13 5 34 -17t31 -40q4 -10 5 -21q1 -25 -25 -50q-34 -35 -72 -44q-15 -3 -31 -3q-39 0 -77 22 q-54 31 -93 83q-93 122 -114 205q-5 18 -6.5 37.5t-2 48t-0.5 39.5v8q-1 18 -10 76q-12 79 -12 162q2 47 10 145q2 41 10 113q10 144 31 250q4 23 21 95t24 121q5 34 5 68q0 14 -1 29q0 19 -6 25q-15 17 -49.5 15t-52.5 -13q-5 -3 -10 -7.5t-9.5 -10.5t-7.5 -9 q-14 -14 -39 -39.5t-44.5 -46t-35.5 -39.5q-10 -12 -63 -100q-95 -161 -119 -209q-26 -49 -44.5 -103t-41 -139.5t-29.5 -109.5q-2 -8 -6.5 -30t-8.5 -35t-12 -28.5t-20 -23.5q-16 -11 -30 -11q-16 0 -30 16q-26 29 -26 67q-2 38 -2 77q0 180 35 365q8 34 -2 53 q-10 17 -25 17q-33 0 -94 -76q-7 -9 -78 -96q-32 -39 -54.5 -94t-43.5 -126t-35 -106q-102 -253 -213 -414q-21 -25 -45 -22q-7 0 -24 39q-14 27 -14 62q0 21 5 46q16 48 21 56q10 16 32.5 46.5t32.5 47.5q27 43 52 100t36 86.5t37 111t31 95.5q4 13 21.5 65t27.5 86t17 68 q20 90 20 173q0 25 -2 50q-11 145 -63 187q-25 20 -62 20q-10 0 -22 -2q-46 -5 -105 -39q-116 -70 -180 -215q-16 -35 -16 -70q0 -48 30 -96q12 -19 31 -28q22 -9 29 -6.5t20.5 14t24.5 14.5q17 6 29 -5t12 -30q0 -37 -44 -56q-27 -12 -50 -12q-15 0 -29 5q-79 28 -114 112 q-18 42 -18 84q0 40 17 78z" />
<glyph unicode="N" horiz-adv-x="1642" d="M16 868q14 69 41 148q10 29 47 76q58 72 116.5 119.5t139.5 86.5q78 39 171 39q42 0 87 -8q94 -19 121 -106q25 -82 35 -183q4 -52 3.5 -117t-3.5 -143q-1 -17 -3 -51.5t-3 -52.5q-2 -25 -7 -76t-7 -76q0 -2 -6 -145q0 -2 2.5 -6.5t3.5 -7.5q1 2 4 6t4 6q60 123 67 139 q8 20 24 62l24 63q8 19 49 117t65 149q57 115 109 189q9 13 21.5 27.5t20.5 23t26 26t24 23.5q43 44 96 44q16 0 34 -4q74 -18 99 -93q58 -194 59 -373q0 -9 -1 -18q0 -88 -9 -342q-1 -40 -6 -119.5t-6 -118.5q0 -30 10 -178q7 -65 15 -119q12 -73 63 -121q20 -18 44 -17.5 t52 17.5q6 4 30.5 38.5t37.5 35.5q14 0 19 -25q1 -7 1 -14q0 -32 -30 -63q-38 -38 -82 -50q-10 -2 -21 -2q-26 0 -59 13q-120 50 -164 186q-29 93 -39 158q-4 25 -14 72.5t-14 72.5q-10 60 -13 107q-12 141 -18 282v28q0 67 7 167q9 122 13 198q1 17 1 35q0 66 -11 158 q-8 34 -31 14q-78 -69 -102 -102q-36 -49 -86 -154q-81 -162 -113 -237q-17 -38 -44 -117t-44 -117q-11 -27 -26 -56t-35.5 -65t-30.5 -55q-21 -39 -72 -151q-38 -93 -77 -199q-5 -14 -10.5 -41.5l-6.5 -32.5q-2 -9 -20 -23t-25 -10q-6 5 -10.5 15.5t-3.5 19.5 q6 75 19.5 224.5t19.5 224.5q5 57 14 192q19 194 23 242q6 99 6 197q-3 137 -49 231q-14 29 -22 43t-26.5 30.5t-41.5 20.5q-16 2 -31 2q-17 -1 -34 -3q-32 -6 -66 -24t-53.5 -30.5t-58.5 -43t-50 -38.5q-91 -70 -123 -287q-1 -7 -1 -14q0 -23 12 -53q16 -40 44.5 -70 t54.5 -33q10 -1 30.5 -7t25.5 -7q12 -3 24 -3q50 0 90 48q33 38 47 82q3 9 3 18q0 31 -33 64q-17 21 -19 31q-5 10 -1.5 17.5t20.5 10.5q8 1 15 1q48 0 69 -48q13 -37 13 -66q0 -19 -5 -34q-19 -66 -72 -129q-39 -45 -100 -64q-32 -10 -62 -10q-27 0 -53 8q-6 1 -24 15 q-62 39 -72 51q-72 85 -72 183q0 27 6 56z" />
<glyph unicode="O" horiz-adv-x="1087" d="M-59 311q-6 79 -6 154q0 228 53 422q44 157 112 276q41 72 80 119.5t94 73.5q2 1 9 4t11.5 5t13 5.5t14.5 5.5t14 4t14.5 2h12.5t10.5 -3t7.5 -7q12 -18 -1 -33t-43 -28t-32 -15q-77 -60 -119 -172q-29 -78 -45 -243q-13 -129 -18.5 -222.5t-5.5 -210t15.5 -224 t47.5 -206.5q37 -129 113 -180q53 -32 116 -32q12 0 25 2q77 8 139 51q102 75 162 239q34 97 47 174q20 104 20 210q0 80 -12 162q-28 190 -116 355q-43 77 -84 107q-30 24 -66 28q-8 1 -15 0q-27 0 -52 -12q-32 -18 -40 -54q-2 -9 -1 -18q0 -26 18 -44q5 -5 17 -23t24 -28 t29 -9q4 0 11 1t11 1q29 -5 20 -32q-8 -25 -35 -35q-14 -5 -28 -2q-36 10 -73 51t-54 80q-16 38 -16 70.5t16 60.5q22 41 68 62q38 17 77 16h19q83 -5 172 -76q154 -120 222 -313q46 -131 46 -265q0 -63 -10 -127q-44 -271 -248 -520q-51 -63 -95 -103t-101 -67 q-65 -30 -137.5 -30t-137.5 30q-145 67 -223 240q-53 125 -67 323z" />
<glyph unicode="P" horiz-adv-x="1249" d="M-92 1192q17 8 35 -14q22 -33 24 -35q19 -15 44.5 -9t37.5 27q17 29 21 92q7 110 43 183q21 44 57 86q35 41 70 41h2q33 -1 58 -31.5t34 -71.5q10 -40 12 -81v-14q0 -31 -10 -50q-12 -33 -53.5 -92.5t-53.5 -94.5q-10 -35 -10 -108q-1 -116 -2 -350.5t-2 -350.5 q27 42 35 150q30 352 207 661q91 159 194 218q59 36 138 36h4q81 -1 139 -47q46 -39 88 -125q70 -145 82 -315q3 -36 3 -71q0 -103 -24 -204q-32 -136 -104 -251q-58 -88 -117 -119q-37 -19 -81 -19q-24 0 -49 6q-72 16 -116 68q-44 53 -48 125q0 8 -1 15q0 63 33 112 q30 47 72 47q23 -2 38 -24t3 -39q-8 -10 -39 -23q-32 -16 -43 -56q-5 -17 -5 -33q0 -21 9 -40q15 -34 48 -57.5t71 -28.5q33 -4 47 2q17 9 39 39q69 103 94 279q14 92 14 186q0 152 -37 307q-32 144 -114 174q-32 11 -61 11q-12 0 -24 -2q-40 -6 -74 -31.5t-62.5 -60 t-53 -76t-43.5 -80t-34 -72.5q-3 -8 -5 -12q-58 -131 -96 -305q-19 -92 -39.5 -265.5t-32.5 -244.5q-14 -89 -14 -195q0 -39 2 -80q0 -9 1.5 -32.5t2 -35.5t-1 -30.5t-6.5 -33t-14 -26.5q-12 -13 -40 -19q-10 -2 -17 -2q-15 0 -23 7q-9 9 -13 33q-90 628 -96 1282 q0 29 -12 41q-6 5 -14.5 6.5t-23 0.5t-17.5 -1h-4q-40 0 -66 42q-15 24 -16 47q0 18 10 34zM219 1323q4 -25 12 -61q13 26 25 47q8 16 14 24q1 3 4 10.5t4.5 10.5t4 10.5t3.5 11t2.5 10.5t1.5 11v10.5t-1.5 11.5t-4 11t-5.5 12q-3 4 -9.5 13t-9.5 13q-1 -1 -8.5 -7.5 t-11 -11t-4.5 -9.5q-9 -45 -17 -117z" />
<glyph unicode="Q" horiz-adv-x="1232" d="M-23 489q-12 66 -12 136.5t12 144.5q24 149 89 287q22 44 88 149q1 2 12 21.5t18 27.5q143 178 297 207q36 8 78 8h13q116 0 214 -53q160 -89 256 -273q93 -178 93 -378v-12q0 -228 -52 -375q-38 -106 -153 -252q-33 -42 -68 -75.5t-60.5 -52.5t-72 -52t-78.5 -58 q-3 -3 -4 -13t2 -13q60 -65 86.5 -93.5t78.5 -75.5t99 -79q3 -2 18.5 -12t20 -13t18.5 -11.5t20 -12t18.5 -10.5t21 -11t20 -9t22.5 -8.5t22 -6.5q47 -11 94 -11q102 0 201 54q56 32 85 92q21 43 21 85q0 17 -4 34q-1 3 -4.5 20t-7.5 25q-5 10 -13.5 18.5t-15.5 7.5 q-22 -4 -41 -30q-3 -4 -9.5 -13.5t-10 -13.5t-10.5 -10.5t-12 -4.5t-15 5q-12 7 -12 20q0 19 24 49q44 53 86 93q22 16 62 16h5q44 -1 72 -14q40 -18 49 -67q2 -17 2 -34q0 -33 -10 -68q-16 -52 -47 -91q-118 -152 -279 -209q-77 -28 -150 -28q-79 0 -153 32 q-27 13 -56 30.5t-63.5 39.5t-54.5 34q-37 21 -68 48.5t-78.5 79.5t-57.5 63q-24 27 -60 49q-10 7 -35 -8q-161 -101 -260 -129q-30 -7 -55 -7q-78 0 -119 68q-13 21 -13 45q0 45 48 100q97 110 212 110q20 0 40 -3q29 -4 59.5 -15t68.5 -27.5t58 -23.5q19 -5 29 5 q57 52 99.5 107.5t70 109t48 117.5t34.5 125.5t30 139.5q3 18 5 27q3 14 8 41q22 113 30 168q5 32 5 71q0 30 -3 63q-6 79 -36 151q-11 26 -28 72t-32 81t-34 66q-75 121 -216 121q-46 0 -98 -13q-41 -10 -92.5 -58.5t-81.5 -96.5q-67 -110 -98 -216t-51 -253 q-15 -113 -15 -188q0 -26 2 -48q3 -26 5.5 -70.5t6.5 -81t11 -69.5q13 -58 56 -94q41 -35 97 -35h5q58 2 110 47q96 83 140 208q26 75 26 143q0 45 -12 87q-2 6 -6.5 26t-9 35.5t-11.5 32.5t-18 24.5t-25 4.5q-15 -3 -27.5 -16.5t-17.5 -30.5q-7 -33 12 -55q2 -2 6.5 -7 t7 -9.5t3.5 -8.5q4 -17 -11.5 -33t-33.5 -14q-31 3 -43 43q-6 21 -6 43q0 46 26 99q34 80 94 100q17 5 32 5q49 0 91 -50q37 -44 53 -104q13 -45 13 -92q0 -17 -2 -34q-19 -156 -78 -272q-91 -182 -354 -244q-20 -5 -37 -5q-55 0 -96 46q-132 147 -173 346zM240 -150 q-8 -18 -8 -32q0 -21 18 -31q6 -3 12.5 -14.5t9.5 -14.5q7 -11 14 -11q2 0 3 1q130 42 205 102q3 3 4 16v6q0 8 -2 9q-122 50 -146 60q-30 -6 -64 -34t-46 -57z" />
<glyph unicode="R" horiz-adv-x="1175" d="M-66 1159q10 80 56 131q56 64 174 105q82 31 166 41q37 5 74 4q48 0 96 -8q86 -14 153 -54q86 -54 148 -161q76 -143 76 -297v-9q-1 -129 -55 -251q-56 -126 -163 -220q-30 -26 -18 -43q4 -5 25 -14q126 -41 206 -133q54 -62 109.5 -198.5t93.5 -190.5q34 -51 77 -51h5 q7 1 25.5 4.5t25.5 3.5t21 -6q9 -7 9 -18q0 -6 -3 -13q-10 -27 -45 -40q-24 -9 -48 -9l-22 2q-57 8 -114 61q-53 46 -97 103t-96 140t-76 116q-140 192 -305 204q-8 3 -14 0q-11 -4 -15 -24q-4 -82 -16 -246q-4 -56 -7 -86.5t-14 -77t-28 -82.5q-51 -100 -143 -143 q-16 -7 -72 -16q-12 -3 -22 -3q-14 0 -27 5q-7 3 -29 16q-24 15 -31 23q-10 10 -9.5 27t13.5 26q13 10 23 6q20 -10 25 -12q7 -2 43 -2h26q5 2 9 6.5t5.5 8.5t3.5 10.5t3 8.5q29 97 43 185q22 153 22 379q0 22 0.5 105t1 113t3 102t7.5 113.5t13 101.5t21.5 111.5 t31.5 102.5q36 97 98 129q24 13 53 13q18 0 38 -6q52 -14 59 -50q-129 -140 -156 -354q-10 -68 -9.5 -163t9.5 -218q0 -25 17 -33h22q87 12 156.5 67t103.5 130q38 79 38 195q0 50 -7 106q-15 105 -64 293q-10 47 -30 75q-39 48 -156 68q-53 7 -100 7q-93 0 -160 -29 q-61 -29 -95 -81q-24 -37 -24 -74q0 -15 4 -30q3 -12 11.5 -31t13 -30.5t7.5 -30t-5 -29.5q-15 -32 -65 -36q-6 0 -11 -1q-42 0 -70 23q-45 37 -45 104q0 14 2 29z" />
<glyph unicode="S" horiz-adv-x="919" d="M-12 122q-11 51 -12 99q0 104 53 193q45 73 133 108q46 19 92 18q40 0 78 -14q33 -11 57.5 -35t28.5 -53q1 -5 1 -10q0 -48 -61 -102q-18 -13 -26 -15q-16 0 -26.5 14.5t-10.5 32.5q0 3 0.5 12t0 14t-1 12t-3 13t-6.5 11q-10 13 -32.5 14.5t-37.5 -8.5q-24 -14 -45 -57 q-30 -76 -39 -129q-10 -51 -11 -98q0 -30 5 -58q9 -71 51 -127q46 -64 126 -91q38 -13 75 -12q40 0 78 15q106 48 125 194q4 32 4 65q0 139 -76 314q-32 69 -104 193.5t-89 155.5q-79 147 -98 251q-6 40 -6 77q0 103 49 181q34 54 90.5 91t124.5 51q35 6 76 6q57 0 127 -12 q97 -20 135 -60q31 -33 33 -83q0 -6 1 -11q0 -44 -18 -80q-35 -85 -116 -141q-51 -33 -86 -35h-11q-51 0 -75 33q-14 18 -10.5 42t24.5 36q25 11 54 0t53 -35q38 38 44 92q1 11 1 21q0 42 -21 79q-26 46 -81 71q-39 18 -78 18q-16 0 -31 -3q-68 -15 -110 -73 q-40 -55 -40 -121v-6q0 -60 24 -119t68 -131q22 -37 64 -104t75.5 -123t59.5 -107q99 -199 104 -363v-16q0 -97 -34 -187q-37 -98 -111 -167q-81 -78 -174 -94q-24 -4 -49 -4q-48 0 -97 16q-75 25 -133 76q-119 104 -155 265z" />
<glyph unicode="T" horiz-adv-x="1181" d="M-8 1134q18 50 71 80q71 40 162 40q17 0 35 -1q66 -3 125 -4h8q55 0 115 12q64 13 117 42q224 117 245 129q12 6 29 36q21 42 33 54q11 12 30 12h1q19 0 61 -18q14 -4 28 -30q11 -19 10 -29q0 -4 -1 -7q-33 -79 -55 -163t-33 -186t-14.5 -164.5t-8.5 -185.5 q-1 -34 -2 -51q-9 -182 -25 -275t-67 -280q-97 -354 -346 -399q-38 -7 -75 -7q-98 0 -190 50q-127 69 -190 203q-21 44 -21 87q0 13 2 26q8 56 48 90q24 16 56 14.5t61.5 -23t34.5 -49.5q6 -28 -13 -31t-35 3q-18 3 -32 3q-30 0 -40 -13q-7 -9 -7 -26q0 -20 10 -50 q26 -76 93 -127.5t148 -57.5q30 0 60 -6q15 -2 29 -2q213 0 268 385q5 35 8.5 77t5.5 72.5t6 99.5t6 111q7 144 33 373q5 49 13 102t18.5 120.5t15.5 101.5q1 5 -0.5 13t-1.5 11l-24 -6q-229 -124 -457 -124q-35 0 -70 3q-37 2 -68 3t-60.5 -10.5t-51.5 -37.5 q-12 -13 -43 -73q-11 -23 -16 -23q-21 0 -31 14q-16 25 -16 52q0 20 8 40z" />
<glyph unicode="U" horiz-adv-x="1163" d="M8 156q18 316 90 637q38 166 86 317q3 9 15.5 55t25.5 74.5t33 46.5q18 16 37 16q18 0 37 -14q26 -21 29 -67q1 -12 0 -23q0 -31 -5 -53q-14 -124 -67 -354.5t-60 -264.5q-32 -160 -32 -300q0 -47 4 -91q1 -8 2.5 -36t3.5 -44t6.5 -38.5t11.5 -36.5q10 -21 24 -28t30.5 0 t32 18t33 31.5t29 35.5t25.5 34t17 23q104 140 182 291q163 318 211 647q12 82 35 115q18 26 48 35.5t56 -6.5q32 -21 32 -77q0 -22 -5 -50q-59 -334 -59 -675q0 -84 4 -169q2 -67 34 -207q18 -93 35 -123q22 -38 54 -39q23 0 51 21q16 11 32 44t19 38q6 6 8 6h2q9 0 8 -13 q0 -20 -21 -71q-17 -40 -24 -47q-32 -32 -77 -44q-20 -5 -40 -5q-24 0 -49 8q-98 35 -139 209q-52 205 -65 442q-2 38 -2 75.5t2 75.5q-133 -346 -353 -645q-44 -58 -87.5 -94.5t-96.5 -40.5h-11q-50 0 -94 33q-50 37 -73 94q-27 63 -27 176q0 28 2 58z" />
<glyph unicode="V" horiz-adv-x="1208" d="M-166 1049q4 153 84 223q13 12 49 47t58 53q19 17 44 26t67.5 16.5t53.5 10.5q25 6 50 6q41 -1 84 -17q69 -28 124.5 -83.5t99 -121t70.5 -132.5q18 -46 38.5 -109.5t33 -105.5t32 -112t23.5 -86q8 -30 43.5 -184t65.5 -232q4 11 5.5 34t4.5 33q10 40 30.5 148.5 t39.5 165.5q4 17 10 58t12 61q3 9 31 106q15 58 35.5 167t36.5 167q7 26 11 76.5t7 68.5q1 5 3 17.5t4 20t5.5 16.5t10.5 13t16 3q53 -3 53 -77q0 -14 -2 -30q-7 -51 -20.5 -103t-34.5 -119.5t-29 -98.5q-13 -45 -22.5 -136t-24.5 -137q-21 -64 -50 -186t-46 -178 q-9 -36 -18 -158q-3 -30 -13 -164q0 -4 -1 -14q-1 -14 -1.5 -22.5t-2.5 -24.5t-5 -25t-8 -20.5t-12 -15.5q-7 -6 -16 -8q-3 -1 -6 0q-7 0 -16 3q-13 5 -28 17q-16 13 -27 39q-67 123 -81 178q-8 30 -29 94.5t-29 97.5q-9 34 -21 93t-24.5 109t-28.5 93q-16 44 -37.5 124.5 t-45 146.5t-58.5 123q-11 19 -61 110t-80 139q-25 37 -79 61q-47 21 -82 21h-9q-27 -3 -54 -19t-40.5 -29.5t-38.5 -41.5q-39 -42 -86 -164q-8 -21 -8 -48q0 -40 17 -92q28 -88 81 -134q20 -19 48 -19q12 0 24 4q38 10 39 39q0 4 -1 9q-2 11 -16 39t-10 39q3 10 16 11t25 -7 q22 -16 33 -45q11 -31 12 -59q0 -4 -1 -8q-2 -32 -21 -52.5t-43.5 -30.5t-57.5 -2t-64 33q-141 116 -141 291z" />
<glyph unicode="W" horiz-adv-x="1472" d="M-9 227v14q0 29 3 59q4 38 8.5 69.5t14 71.5t16.5 67.5t18 69.5q41 161 158 552q11 36 72 175l2 4q9 1 37 5q30 4 38 4q2 0 4 1q10 0 33 -2q8 0 17 -24.5t6 -39.5q-51 -238 -127 -542q-17 -68 -51.5 -195t-42.5 -156q-2 -8 -2 -24q12 8 20 16q163 205 209 269 q17 25 39 80.5t37 78.5q25 42 53 86.5t67.5 105t55.5 85.5q0 2 2 2q10 5 37 14q7 2 28.5 8.5t28.5 7t23 -1.5q17 -9 30 -30.5t15 -40.5q14 -151 30 -449q1 -20 6.5 -101.5t6.5 -125.5q1 -26 2.5 -83t4 -99.5t7.5 -81.5q9 -82 57 -213q3 -10 12.5 -19t26 -19.5t21.5 -14.5 q26 -15 45 -23q17 -4 26 2q61 36 80 109q4 16 37 140t45 191q5 31 5 67q0 7 1 14q0 30 -2 66q-2 46 -2 68q-4 102 -4 152q0 221 -2 332q0 152 2 182q1 12 12.5 26t22.5 17q45 10 135 18q3 0 35 -16q-2 -4 -8 -18t-12 -17q-32 -25 -64 -28q-37 -4 -49 -27t-12 -59 q0 -83 3 -249t3 -249q0 -144 -13 -313q-6 -79 -28 -160q-33 -150 -62 -211q-47 -100 -141 -122q-24 -6 -49 -5q-69 0 -137 47q-54 37 -83.5 92t-52.5 135q-79 317 -88 654v17q-1 40 3 104q4 78 6 98q1 14 -0.5 40t-1.5 34h-2l2 -3q-7 -12 -68.5 -107t-83.5 -153 q-11 -27 -24.5 -53t-34 -57.5t-32 -48t-40 -55t-35.5 -48.5q-22 -32 -50.5 -69t-47 -60t-56.5 -69t-51 -62q-35 -40 -71 -40q-25 0 -50 20q-15 13 -24 43q-4 35 -5 71z" />
<glyph unicode="X" horiz-adv-x="1050" d="M-148 -281q-8 21 -8 40q0 31 19 59q24 35 59 35h6q20 -2 31.5 -19.5t1.5 -30.5q-5 -6 -17 -12.5t-16 -9.5q-24 -19 -21.5 -50t27.5 -46q24 -16 53 -16q31 0 68 18q41 22 88 84q43 58 82.5 136.5t58 125t56.5 147.5q70 192 80 293q3 27 3 59q0 83 -17 201 q-22 146 -51.5 251.5t-90.5 195.5q-65 95 -143 95q-9 0 -19 -1q-51 -7 -84 -51.5t-43 -100.5q-2 -15 -2 -28q0 -35 15 -56q14 -18 40 -21t42 13q8 8 15 29t15 28q15 11 36 7.5t30 -17.5q7 -11 7 -24q0 -19 -17 -41q-30 -34 -84 -40q-9 -1 -17 -1q-43 0 -75 22q-37 25 -52 69 q-9 27 -9 54q0 16 3 33q9 47 40 89.5t77 68.5q67 38 140 38q34 0 69 -8q85 -22 142.5 -86t88.5 -149q15 -39 44 -149.5t57 -166.5q68 137 149 224q50 52 77.5 78.5t76.5 67t98.5 64t103.5 33.5q24 4 44 5q33 0 53 -13q18 -12 18 -35q0 -31 -26 -39q-6 -2 -17 -0.5t-16 3 t-16 5.5t-15 5q-12 3 -24 3q-66 0 -146 -77q-125 -117 -201.5 -216.5t-101.5 -211.5q-10 -46 -9 -107q0 -78 15 -182q37 -232 88 -364q43 -117 113 -170q43 -33 100 -43q17 -3 34 -3q39 0 77 15q25 11 41 30.5t16 41.5q1 5 -4 16.5t-9.5 23.5t-7.5 23.5t2.5 19.5t20.5 9 q21 3 41 -23q19 -21 19 -50q0 -14 -5 -30q-17 -57 -73 -89t-124 -36q-14 -1 -28 -1l-108 11q-68 14 -111 40q-78 48 -154 149q-18 25 -31 58.5t-25 77t-19 63.5q-5 11 -16 30.5t-15 26.5q4 -6 -4 -33q-3 -11 -11.5 -31.5t-9.5 -23.5q-18 -53 -39 -102q-45 -117 -96 -199 q-71 -114 -151 -164q-54 -32 -114 -39q-15 -2 -28 -2q-45 0 -86 17q-54 24 -74 77z" />
<glyph unicode="Y" horiz-adv-x="1005" d="M90 907q0 109 6 217q0 73 29 111q21 30 53 36q5 1 10 1q26 0 48 -27q14 -20 14 -67q1 -102 2 -306.5t2 -306.5q0 -63 12 -94q10 -23 30 -41t46 -22q13 -3 26 -3q56 0 113 54q150 140 176 426q3 38 6.5 115t6.5 116q4 61 24 88q16 20 43 29t51 0q40 -16 40 -78 q0 -12 -1 -25q-14 -133 -14 -258q0 -204 37 -389q9 -41 22 -96.5t19.5 -84.5t12.5 -70q6 -39 6 -78v-7q-1 -43 -7 -98q-21 -188 -182 -411q-78 -104 -152 -148q-50 -31 -107 -41q-22 -4 -44 -4q-36 0 -72 10q-108 31 -158 156q-25 62 -25 130q0 10 1 21q4 79 41 150 q24 49 67 82t94 33h3q42 -1 76.5 -26t48.5 -60q14 -27 6.5 -60t-37.5 -47q-31 39 -41 74q-29 -2 -55 -45q-53 -103 -62 -215v-13q0 -84 49 -116q32 -17 67 -17h7q40 2 76 21q112 54 158 229q43 162 54 300q5 58 5 115q0 78 -9 153q-15 129 -57 301q-53 -134 -106 -189 q-42 -43 -101 -67q-43 -17 -86 -17l-32 2q-84 11 -144 82q-45 56 -65 137q-1 5 -3 14.5t-3 14.5q-25 103 -25 264v45zM168 1147q1 0 2 1t2 1q0 2 -2 2t-2 -2v-2z" />
<glyph unicode="Z" horiz-adv-x="1282" d="M88 -80q-6 20 -6 38q0 21 8 40q16 34 51 50t77 22q14 2 27 2q27 0 52 -9q9 -2 26 -8t26.5 -9t24 -3t27.5 6q47 19 119 96q40 40 86 119q319 531 498 1139q-82 -22 -245 -66t-245 -65q-33 -9 -59 -19.5t-53 -27.5t-41 -42.5t-10 -56.5q3 -28 18 -50.5t41 -26.5 q6 0 18.5 3.5t23 6.5t20 3.5t13.5 -7.5t1 -25q-7 -35 -55 -35q-11 0 -25 2q-72 7 -108 65q-22 36 -21 75q0 24 8 49q35 108 182 149q57 15 161.5 47.5t148.5 44.5q55 16 153.5 58t145.5 57q43 16 67 16q8 0 14 -2q25 -6 39 -27q17 -24 17 -53q0 -31 -23 -90 q-223 -546 -473 -1067q-15 -31 -34 -62t-46 -73t-39 -61q-2 -3 -20 -28.5t-28 -45t-9 -31.5q0 -5 4.5 -11t9.5 -10.5t13.5 -11t13.5 -10t14 -9.5t11 -7q65 -45 146 -87t183.5 -90t153.5 -75q114 -58 180 -72q29 -5 54 -5q11 0 22 1q66 3 108 37q3 2 14.5 11t17 12.5t15.5 7 t19 2.5q24 -1 36 -27q6 -13 6 -25t-5 -24q-18 -37 -80 -53q-70 -21 -146 -21q-151 0 -325 84q-72 35 -204 115t-200 113q-23 13 -70 34.5t-71 34.5q-19 -35 -88 -78t-111 -51q-11 -3 -25 -3q-22 0 -50 7q-34 7 -59 14t-57 19.5t-53.5 33t-29.5 46.5zM150 -53q-2 -6 -1 -11 q0 -7 3 -12q6 -6 12 -6q23 -8 44 -8q36 0 66 24q32 28 50 46q-2 -2 -15.5 1t-35.5 9t-29 8q-4 0 -8 1t-5 1q-67 -4 -81 -53z" />
<glyph unicode="[" horiz-adv-x="634" d="M96 -43q6 179 20.5 540t20.5 543q3 69 -2 310q0 21 1.5 34.5t6.5 27.5t17 22.5t30 11.5q248 37 287 41q8 1 18.5 -4t23 -12.5t18.5 -10.5q-4 -4 -13 -16.5t-16.5 -19.5t-15.5 -11q-41 -15 -103 -22q-40 -6 -57.5 -28t-18.5 -71q-11 -501 -45 -1315q-1 -35 -1.5 -51.5 t1 -37.5t3.5 -28.5t9.5 -16.5t15 -9.5t24.5 -0.5t33 3.5t44 9.5q67 15 105 13q8 -1 18 -6t22 -13t19 -12q-5 -5 -12.5 -17t-14.5 -19.5t-14 -10.5q-50 -19 -112 -29q-17 -3 -95 -8h-34q-62 3 -96.5 12t-56 33.5t-27 62.5t-3.5 105z" />
<glyph unicode="\" horiz-adv-x="600" d="M-4.5 1351.5q0.5 16.5 4 32.5t15 25t30.5 10q32 3 58.5 -24.5t43.5 -77t28 -95.5t21.5 -100.5t14.5 -70.5q49 -172 148.5 -516.5t148.5 -516.5q9 -34 13 -65t3 -65t-17.5 -53.5t-47.5 -18.5q-34 3 -53 28q-15 20 -23.5 54t-13 75.5t-9.5 59.5q-132 456 -219 766 q-18 67 -55.5 199t-56.5 198q-2 9 -9.5 33.5t-11.5 41t-8.5 40.5t-4 40.5z" />
<glyph unicode="]" horiz-adv-x="634" d="M16 -186q46 36 60 39q42 7 104 0q38 -3 56.5 -4.5t37 4t24.5 11t11 27.5t5.5 42t0.5 65q-7 720 -4 1300q0 49 -16.5 68.5t-56.5 19.5q-74 4 -101 13q-8 2 -15.5 8.5t-16.5 17.5t-13 15q5 3 19.5 13t24.5 15t18 5q82 2 286 -7q24 -1 36.5 -14t14.5 -29.5t1 -44.5 q-1 -15 -7 -132t-6 -177q6 -1068 6 -1071q1 -54 -3.5 -87.5t-15.5 -60t-33.5 -42t-54 -25.5t-81.5 -19q-24 -4 -37 -4q-62 -4 -92 -4q-74 4 -113 15q-7 3 -13.5 10t-14 18t-11.5 15z" />
<glyph unicode="^" horiz-adv-x="1001" d="M201 938l8 4q23 0 68.5 47t77.5 89.5t53 74.5q1 1 3 5.5t4 6.5t7 2q6 0 8 -2q65 -138 154 -217q12 -12 24 -12q2 -4 10 -8q1 -3 6 -4.5t5 -3.5q-142 0 -228 131q-2 -4 -25 -28.5t-32 -31.5q-12 0 -35.5 -16.5t-38.5 -16.5q-1 0 -3 1.5t-3 1.5q-30 -25 -53 -25q-8 0 -10 2 z" />
<glyph unicode="_" horiz-adv-x="688" d="M47 86q0 18 8 35.5t27 17.5q0 -1 -1 -4t-1 -4q0 -22 53 -37.5t103 -20.5t81 -5q19 0 59.5 1t61.5 1q44 0 64 -2q2 -2 6 -2l24 -5q5 -5 19 -9.5t18 -10.5q22 -11 43.5 -51.5t26.5 -73.5l-6 -6l-10 14l-2 4q-38 54 -115 54q-36 0 -107.5 -14.5t-97.5 -16.5l-12 4 q-8 -1 -35.5 -5.5t-40.5 -4.5q-64 0 -115 38.5t-51 102.5z" />
<glyph unicode="`" horiz-adv-x="278" d="M53 1331q-9 30 19 37q30 7 53 -20q6 -7 10 -15q66 -148 47 -235q-2 -9 -12 -7.5t-16 9.5q-64 86 -101 231z" />
<glyph unicode="a" horiz-adv-x="733" d="M-53 162q-5 27 -5 58q0 70 23 165q25 99 117 209q5 6 23.5 29t28 33.5t26 26.5t32.5 25.5t33 14.5t36 5q30 0 62 -14q52 -22 62 -71q0 -2 5.5 -35.5t6.5 -50.5q1 -6 -4.5 -14t-11.5 -11q-12 -4 -25 13q-4 5 -10 17.5t-10 17.5q-5 7 -15 23.5t-16.5 26.5t-9.5 9 q-65 -24 -92 -53q-61 -72 -68 -213q-4 -78 -8 -230q0 -5 3.5 -13t4.5 -11l10 5t11 7q78 97 90 182q13 72 57 125q14 20 43 20q8 0 16 -1q41 -7 56 -41q20 -45 20 -89v-12q-1 -12 -1 -24q0 -87 44 -207q3 -8 8.5 -24.5t8.5 -24.5q12 -25 14 -25q18 4 31 17q26 27 43.5 56.5 t38 78.5t28.5 65q6 13 12.5 38.5t12.5 37.5q8 18 22 47.5t24.5 54t18.5 48.5q6 20 24.5 52t29.5 32t14 -31v-10q0 -25 -8 -53q-10 -34 -28.5 -76t-24.5 -60t-18 -56t-19.5 -60.5t-19 -54.5t-23.5 -58q-69 -153 -199 -168q-6 -1 -11 -1q-8 -1 -14 1q-12 2 -22 11t-16 15 t-17 19.5t-14 17.5q-54 61 -88 185q-1 5 -4 11.5t-4 8.5q-2 -3 -7.5 -9t-7.5 -9q-61 -110 -145 -148q-18 -8 -36 -8t-35 8q-34 16 -56 54q-42 67 -47 96z" />
<glyph unicode="b" horiz-adv-x="714" d="M-10 580v10q5 167 47 422q36 249 184 471q33 47 95 67q28 9 54 9q32 0 60 -13q2 -1 29.5 -13t38.5 -22q37 -32 51 -76.5t22 -113.5q3 -32 3 -63q0 -26 -2 -50q-5 -56 -24 -121.5t-30 -98t-41 -109.5q-40 -101 -160 -287q-41 -69 -122 -146q-7 -7 -12 -14t-8 -16t-5 -13.5 t-3 -16.5t-1 -14v-16.5v-15.5v-33.5v-43.5q-1 -32 -1 -56q1 -11 1 -21q0 -30 4.5 -66.5t19 -67t39.5 -56.5q27 -29 50.5 -37t56.5 -2q35 6 72 47q20 25 34 64q1 3 17 75q2 9 4 26.5t4 25.5q4 16 4 24q0 37 2 37q-19 -7 -27 -6q-31 1 -60 27.5t-48 64.5q-15 34 -15 59 q0 30 23 45q17 12 43.5 13t46.5 -8q20 -8 52 -36.5t42 -35.5q6 -6 18.5 -5t20.5 7q31 22 121 90q4 3 20.5 12t24.5 17q6 5 18.5 15t18.5 15q4 3 11.5 8.5t11.5 8.5q5 5 12 6t12 -4q2 -3 2 -8q0 -6 -4 -15q-21 -48 -55 -84q-20 -25 -78 -61q-5 -3 -25 -17.5t-28.5 -20.5 t-22.5 -18t-24 -24q-7 -8 -11.5 -20.5t-9 -33.5t-6.5 -28q-13 -57 -20.5 -85t-21.5 -70.5t-29 -66t-38.5 -51t-55 -47t-73.5 -34.5q-9 -3 -19 -3q-1 0 -3 -1q-9 0 -20 3q-13 3 -20.5 5.5t-24.5 10t-23 9.5q-20 8 -37 20t-30.5 22.5t-25.5 28.5t-20 29t-17 35.5t-13 35 t-11 40t-9 39t-8.5 43t-8.5 41.5q-3 18 -15.5 72.5t-15.5 87.5q-9 72 -9 153q0 22 1 44zM174 606q-1 -6 -1 -20q0 -22 3 -64q6 5 18.5 14.5t22 17.5t14.5 17q16 28 71.5 121t88.5 155t60 126q20 47 33.5 104.5t26 129.5t21.5 110l-12 6q-2 9 -5 24t-6 28t-7 24q-2 4 -6 14.5 t-6.5 16.5t-6.5 13.5t-8 11.5t-8 5q-5 1 -11 1q-14 -1 -28 -5q-22 -6 -35 -18q-72 -63 -110 -219q-48 -168 -74 -330q-21 -123 -35 -283zM395 399q-1 -2 -1 -4q0 -13 22 -43q26 -34 39 -37q7 -2 13 -2q20 -1 24 21q1 6 1 13q0 20 -14 36q-8 13 -22 20q-15 22 -37 19l-4 4 l4 -4q-19 0 -25 -23z" />
<glyph unicode="c" horiz-adv-x="647" d="M-35 301q11 216 109 336q37 47 71 63q24 12 47 12q29 0 57 -20q50 -36 73 -96q12 -32 14 -64v-9q0 -27 -6 -55q-8 -32 -19.5 -57.5t-29.5 -60.5q-1 -4 -10 -8t-11 -2l-8.5 8.5l-10 10t-8.5 9t-7 10t-3 9.5q-3 14 21 53q24 36 24 76q0 30 -14 62q-4 12 -19.5 23t-29.5 13 q-9 1 -23.5 -10t-17.5 -22q-21 -72 -21 -123q0 -123 13 -269q7 -60 39 -104q3 -3 8.5 -11.5t10.5 -13.5t11 -8q21 -8 44 -8q12 0 24 2q64 9 141 86q82 86 125 162q17 27 19 35q12 22 33 67t32 68q35 77 64 94l4 4q13 4 20 0q5 -5 5 -13q0 -4 -1 -9q-1 -7 -28 -60 q-6 -14 -18.5 -40t-18.5 -40q-47 -100 -82 -155q-26 -44 -62 -90q-75 -99 -151 -152q-33 -23 -49 -27q-5 -2 -18 -4.5t-21 -5.5q-37 -15 -80 -15q-13 0 -27 1q-57 7 -119 59q-44 37 -63 80q-34 69 -34 172q0 18 1 37z" />
<glyph unicode="d" horiz-adv-x="784" d="M-10 430q24 106 55.5 175.5t95.5 125.5q28 28 88 27h3q62 0 90 -35q3 -4 22 -24t25 -28t13.5 -26t6.5 -37q0 -5 10 -10q1 1 4.5 3t5 4t1.5 5q5 16 16 51.5t19 62.5t12 52q12 56 31 170t30 170q15 67 84 326q9 30 21 45q7 5 18 7q4 1 8 1q6 0 10 -2q72 -40 72 -118 q0 -18 -4 -38q-5 -21 -14.5 -64.5t-15 -70t-15.5 -63t-20 -66.5q-52 -167 -80 -397q-3 -32 -14.5 -96t-14.5 -95q-2 -34 -2 -73q0 -55 4 -121q1 -26 16 -148q3 -10 13 -20q18 7 33.5 19t31 32.5t23.5 31.5t24 39.5t19 33.5q32 48 67 124q3 6 9.5 19.5t9.5 19.5q24 41 49 45 q2 -2 2 -8v-7q-2 -12 -1.5 -15t-5 -14t-6.5 -13.5t-7.5 -13t-8.5 -13.5q-26 -44 -69 -137.5t-70 -138.5q-31 -53 -59 -89t-66 -61q-32 -21 -57 -21q-12 0 -23 5q-33 15 -45 72q-12 62 -14 141v51q0 49 2 90v86q0 9 -4 21q-11 -8 -17 -16q-74 -151 -174 -232q-38 -30 -82 -30 h-8q-49 3 -82 42q-45 52 -63 116q-10 33 -10 67q0 30 8 61zM141 279h4v-23q0 -4 5 -29q23 9 28 13q58 47 129 143q24 31 34 62q7 23 7 48v19q-4 36 -10.5 59t-20.5 64q-7 18 -36 43q-15 11 -32 11q-8 -1 -17 -3q-27 -8 -33 -33q-26 -95 -27 -108q-8 -57 -31 -266z" />
<glyph unicode="e" horiz-adv-x="542" d="M-12 408q10 165 110 254q21 19 51.5 32t65.5 13t57 -21q13 -13 20 -32t6.5 -47t-1 -42t-6.5 -48.5t-6 -35.5q-16 -95 -41 -145q-24 -36 -31 -43q-4 -4 -21 -14t-20 -17q-5 -12 7 -42t24 -44q37 -42 92 -42q11 0 23 2q70 10 106 59q13 20 44 57.5t48 62.5q14 21 33 57.5 t31 55.5q2 4 9 17t11.5 19.5t12 15t17 11.5t21.5 1q1 -4 1 -8q0 -10 -4 -24q-5 -18 -11 -31.5t-17 -35t-14 -28.5q-28 -57 -43 -85.5t-42 -72t-57.5 -75.5t-68.5 -58q-41 -30 -93 -30q-46 0 -101 24q-6 2 -54 14t-69 27q-37 24 -64 81q-29 61 -29 155q0 30 3 63zM133 432 q0 -6 -1 -12q0 -32 13 -76q1 -3 3.5 -7.5t4 -8t3.5 -6.5q53 6 73 108q0 1 4 21q2 9 10.5 35t12.5 43q3 13 4 28v11q-2 22 -14 34q-13 14 -25 14q-24 0 -47 -52q-34 -78 -41 -132z" />
<glyph unicode="f" horiz-adv-x="643" d="M16 135q-1 17 -1 33q0 37 5 65q3 22 3 76q1 11 2 30t2 30q0 18 2.5 42.5t3.5 34.5q5 45 18.5 125t16.5 123q15 160 36 326q1 12 3.5 36t4 38t6.5 35t13 40q3 8 13.5 35t14.5 37.5t14.5 33t18 32.5t20 25t24.5 20.5t28 9.5q12 3 23 3q6 0 12 -1q68 -8 111 -72 q12 -18 17 -34t8 -45t5 -39q5 -38 5 -88q0 -38 -3 -82q-5 -48 -6 -54q-4 -26 -10.5 -50.5t-12 -38.5t-18 -44t-18.5 -45q-22 -59 -66 -156q-18 -40 -39 -81q-3 -6 -22 -40t-27 -53q-4 -7 -15 -28t-16 -31.5t-12.5 -28t-11.5 -32.5q-9 -36 -9 -93q0 -19 1 -41q1 -50 16 -198 q1 -20 5 -43.5t7 -37t11.5 -47t11.5 -44.5q5 -19 12 -47t11.5 -43.5t13.5 -41t22 -53.5q12 -23 24 -56.5t28 -53.5q14 -18 25.5 -31t14.5 -12q6 6 25 6t25 6q4 4 15 10.5t15 10.5q12 9 19.5 23t9 24.5t3.5 30.5t3 28q1 30 1.5 45.5t-5.5 38t-10.5 35t-14.5 37.5t-16 45 q-6 21 -17 47.5t-17.5 40.5t-24.5 49.5t-21 42.5q-10 20 -35 75.5t-41 84.5q-8 17 -29.5 43t-27.5 35q-14 22 -1 53t38 35q11 2 23.5 5.5t23.5 7t27.5 10t27.5 11.5t30.5 14t30 14.5t33 17t32 16.5t34 18t33.5 17q17 8 39.5 22t32.5 19q13 6 35 20.5t36.5 20.5t22.5 0 q4 -3 4 -9q0 -15 -35 -47q-47 -43 -68 -53q-42 -22 -152 -100t-136 -94q-4 -3 -4.5 -15.5t2.5 -19.5q22 -50 64 -137t57 -121q11 -25 43.5 -87t46.5 -112q17 -58 17 -112q0 -12 -1 -25q-8 -86 -59 -164q-31 -44 -83 -66q-32 -13 -64 -13q-21 0 -42 5q-73 17 -114 94 q-14 29 -51 94t-54 108t-25 99q-4 33 -17 94.5t-17 84.5q-5 27 -7.5 57.5t-3.5 72t-2 62.5zM174 551q1 -1 2 -1q7 0 31 30q6 12 18.5 35t18.5 34q6 13 27 65t38 77q37 60 60 176q3 14 4.5 26.5t3 27.5t2.5 26q2 12 7.5 29.5t7.5 31.5q2 7 2 15q0 7 -1 14q-1 4 -2.5 16 t-2.5 18t-3.5 16.5t-5.5 16t-7.5 11.5t-11 8t-14.5 2q-16 -1 -23.5 -12t-13 -32.5t-10.5 -31.5q-19 -41 -31.5 -106.5t-17.5 -81.5q-6 -23 -32 -104t-34 -130q-14 -81 -14 -137q0 -20 2 -37v-2z" />
<glyph unicode="g" horiz-adv-x="661" d="M-86 193q-3 30 -3 60q0 141 75 265q6 10 19 33t21 36t20 30.5t24 31.5q84 108 168 117q8 1 16 1q50 0 97 -34q54 -39 61 -94q0 -4 -2.5 -9l-6 -12t-4.5 -10q-24 12 -28 15q-6 6 -18 20t-22.5 24t-21.5 17q-13 7 -31 7q-15 0 -34 -5q-40 -13 -68 -43q-41 -49 -60 -104.5 t-28 -126.5q-1 -18 -1 -34q0 -102 22 -153q8 -21 25 -25t34 13q60 57 125 139q15 17 88 121q2 2 8 14q1 2 2 6.5t2 6.5q3 12 47 45t56 33q39 -3 36 -37q-2 -35 -8 -103.5t-8 -103.5q-2 -43 -11 -263.5t-11 -263.5q0 -10 2.5 -15t8.5 -4t9.5 3t11.5 6q94 45 187 45l41 -2 q49 -7 97 -66q33 -41 33 -79q0 -17 -7 -33q-9 -23 -43 -57q-5 -3 -19.5 0.5t-15.5 7.5q-1 3 -3 11.5t-2.5 13t-1 12t0.5 14.5t4 14q9 21 -9 52q-29 47 -87 47q-20 0 -44 -6q-20 -4 -40.5 -10.5t-53.5 -19.5t-39 -15q-31 -12 -28 -45q1 -15 2 -18t2 7q1 3 2 12q2 19 4 22 q2 5 3 -9l1 -8q2 -35 2 -66q0 -110 -29 -186q-52 -147 -227 -260q-13 -8 -33 -8q-16 0 -38 6q-47 12 -62 34q-34 47 -34 128q0 32 5 69q8 49 22.5 86t41.5 71t46 54t65.5 61t70.5 64q17 14 12 51q0 28 1 173t1 171v14q0 43 4 175l-6 12l-12 -12q-17 -26 -39.5 -54.5 t-55.5 -64t-65.5 -62t-70.5 -47.5t-71.5 -21t-66.5 17q-50 31 -57 101zM212 -621q4 -33 30 -73q15 -24 26 -25v0q11 0 29 21q96 118 104 233q1 13 1 23q0 18 -2 26q-4 12 -10.5 27.5t-10.5 48.5q-1 11 -6 15q-3 2 -7 2q-2 0 -4 -1q-7 -2 -14 -10q-59 -67 -81 -98.5 t-52 -93.5q-5 -40 -5 -67q0 -16 2 -28z" />
<glyph unicode="h" horiz-adv-x="819" d="M35 297q0 145 4 186q1 7 7 86t11 121q22 186 45 297q7 33 18 68t27 80t23 65q11 33 34 98.5t34 98.5q21 57 68 57q8 0 18 -2q6 -1 17.5 -2.5t18.5 -2.5t16 -4t15 -7q42 -28 66 -68.5t45 -105.5q21 -64 23 -118v-13q0 -49 -13 -109q-16 -80 -59 -143q-94 -153 -201 -299 q-57 -81 -57 -162v-8q0 -34 -4 -98t-5 -87q-3 -11 0 -20q1 -4 4.5 -11.5t4.5 -11.5q1 2 4 6t5.5 7.5t4.5 7.5q5 12 16.5 43t19.5 49.5t24 45t36 46.5q4 4 19 19.5t20.5 20.5t18.5 12.5t28 11.5q22 5 42 5q13 0 25 -2q32 -5 50 -18q14 -9 24.5 -21t17.5 -21.5t12 -26.5 t8 -25.5t4.5 -29.5t2 -27.5t1 -31t0.5 -28.5q0 -10 1 -30.5t1 -30.5q0 -5 -4 -23t-3 -22q9 -25 45 -13q10 3 21.5 13t25.5 27.5t23.5 31.5t27 39.5t25.5 36.5q20 30 47 85t46 81q33 50 36 53q8 9 10.5 11.5t9.5 0t13 -3.5q2 -7 2 -16q0 -52 -71 -160q-50 -75 -74.5 -110.5 t-76 -98t-91.5 -94.5q-16 -12 -25 -14q-3 -1 -18 -5t-18 -3.5t-17 0.5q-33 9 -54.5 39.5t-21.5 66.5q4 160 4 242q0 8 -8 28q-22 -11 -26 -14q-9 -6 -23.5 -17.5t-19.5 -15.5q-14 -8 -25.5 -22t-16 -21.5t-16.5 -29.5q-65 -125 -127 -318q-12 -35 -13 -45t1 -47 q1 -16 -5.5 -25t-13.5 -10.5t-19.5 -2t-16.5 -1.5h-2q-9 0 -23 9q-16 10 -16 16q2 30 -7.5 51.5t-11.5 42.5q-8 56 -12 223q-1 19 -2.5 51t-2.5 60t-1 57zM225 662q0 1 12.5 17t26 33.5t15.5 20.5q7 10 26.5 36.5t28.5 41.5q57 86 102 184q12 23 18 60q6 32 5 56v7 q-10 112 -60 182q-22 33 -35 33q-3 0 -6 -2q-4 -3 -6.5 -13.5t-3.5 -24t-2 -17.5q-23 -97 -24 -100q-17 -97 -43 -209q-21 -88 -31 -146q-8 -52 -10 -73q0 -2 -1 -5.5t-1 -5.5q-1 -8 -4.5 -23.5t-5.5 -27.5q-1 -8 -1 -16v-8z" />
<glyph unicode="i" horiz-adv-x="428" d="M-4 121q1 23 7 91q5 58 5 92v11q-3 76 -3 131q0 96 9 125q3 9 8 14t8.5 6.5t13 3.5t13.5 3q41 14 80 14q23 0 32.5 -9t6.5 -30q-2 -24 -5 -122.5t-5 -122.5q0 -9 -5 -52q-4 -31 -4 -52q0 -8 1 -15q0 -9 30 7.5t35 21.5q59 60 70 73q0 1 13 16.5t16 18.5q39 40 68 78.5 t44 54.5q28 28 45 35q13 4 21 -17q4 -10 4 -18.5t-4 -13.5q-38 -51 -57.5 -76t-44 -54t-58.5 -73q-20 -26 -50.5 -58.5t-43.5 -47.5q-10 -11 -23 -26t-20 -23.5t-16.5 -20.5t-18.5 -25q-20 -30 -58 -39q-12 -3 -25 -3q-24 0 -44 12q-45 25 -45 90zM33 774q0 20 22 45t39 25 q20 0 41 -19.5t21 -36.5q0 -14 -33 -40q-32 -25 -51 -25h-2q-37 2 -37 51z" />
<glyph unicode="j" horiz-adv-x="573" d="M-259 -732q3 34 8.5 56.5t17.5 63.5q4 13 12 36.5t12 36.5q52 183 129 308q47 71 70 129q4 11 5.5 24.5t1.5 32.5t1 27l6 174l6 174q0 35 2 51q0 30 4 92q1 7 3 20.5t3 25.5t1 22q1 8 2.5 21.5t2.5 24.5t1 21q0 2 2 4q5 9 9.5 29.5t6.5 26.5q20 61 78 67q14 2 34.5 -7 t24.5 -19q26 -57 29 -113q4 -39 6.5 -125t7.5 -131q1 -12 1 -28q0 -21 -2 -48q-4 -48 -6 -78v-6q0 -28 11 -65q8 -1 17.5 4t22 16t14.5 12q56 36 86 64q111 104 180 180q6 6 29 34t36 42q45 45 89 55q-3 -12 -10 -23.5t-19 -25t-17 -20.5q-24 -35 -55.5 -71t-72.5 -79 t-62 -67q-20 -22 -61 -54t-54 -43q-15 -15 -38.5 -45t-28.5 -35q-6 -9 -29.5 -29.5t-28.5 -31.5q-1 -5 -1 -13.5t-1 -13.5q-3 -16 -12.5 -79.5t-14.5 -90.5t-16 -75t-24 -86q-11 -33 -30 -91t-36 -106.5t-33 -91.5q-41 -110 -98 -209q-21 -33 -76 -33q-5 0 -11 1 q-64 3 -93 36q-24 28 -35 58q-8 22 -8 48q0 8 1 16zM-188 -739q-1 -6 -1 -13q0 -17 9 -36q12 -27 30 -33q12 -4 22 -4q32 0 46 41q44 114 49 147q13 97 21 258v62q0 5 -3.5 13t-4.5 11q-1 -1 -8.5 -6t-8.5 -10q-5 -10 -21.5 -41t-24 -46.5t-18.5 -40.5t-18 -46 q-13 -37 -24.5 -79.5t-24.5 -95.5t-20 -81zM69 1082q3 24 19 40q11 19 32 29q13 6 26 6l16 -2q30 -11 44 -51q7 -17 7 -32q0 -18 -10 -32q-19 -24 -56 -24h-4q-40 2 -63 24q-12 15 -12 34q0 4 1 8z" />
<glyph unicode="k" horiz-adv-x="800" d="M-6 254v14q0 28 2 86q2 34 2 58q0 27 -2 41q-2 23 -2 48q0 29 2 61q4 60 10.5 102t18.5 114.5t16 102.5q14 93 51 194q43 126 141 193q35 26 71 26q20 0 40 -8q56 -22 68 -96q2 -14 2 -27t-2 -26.5t-4.5 -24.5t-8.5 -24.5l-10 -22.5t-11 -24t-11 -23q-55 -135 -134 -299 q-6 -13 -30 -49.5t-27 -57.5q-6 -47 -10 -100.5t-7.5 -120t-6.5 -102.5q0 -1 8 -17q6 6 12 15q66 94 82 123q20 40 84 52q18 3 34 3q39 0 62 -21q41 -36 62 -59q27 -30 26 -68q0 -43 -30 -77q-22 -22 -66 -60.5t-61 -54.5q-10 -10 -3 -21q7 -15 20.5 -39.5t18.5 -35.5 q14 -28 31 -35.5t29.5 -1.5t33.5 19.5t33 17.5q20 7 51.5 54.5t77.5 124.5t78 120q17 23 40.5 67t43.5 70.5t45 36.5q8 4 15 4q-2 -25 -14 -56.5t-24 -53t-37.5 -64.5t-35.5 -62t-33 -61.5t-33.5 -60.5t-30.5 -48.5t-41.5 -54.5t-49.5 -49q-13 -12 -42.5 -45.5t-53 -46.5 t-60.5 -13q-67 0 -94 66q-3 6 -10.5 25.5t-11 27.5t-11 24t-13.5 25t-15.5 21t-20 21t-23.5 16q-15 9 -4.5 37t31.5 39q39 19 106 63q28 19 32 77v14q0 49 -25 62q-13 6 -29 1q-11 -4 -22.5 -15.5t-26.5 -32.5l-15 -22q-57 -70 -67 -96q-19 -53 -23 -131q-2 -39 -11 -137 t-11 -150q0 -8 -1 -14t-3.5 -11.5t-4.5 -9t-7 -7t-7 -5t-9 -4t-8.5 -3t-10 -3t-9.5 -2.5q-10 -2 -18 -2q-34 0 -39 40q-24 172 -29 218q-16 159 -20 231zM195 887q0 -12 1 -37t1 -39q4 7 12.5 21.5t14 26t9.5 22.5q39 101 80 227q19 64 19 84v4q-2 3 -4.5 6t-3.5 4 q-6 -3 -18 -9.5t-19 -11t-16 -12t-15 -16.5q-5 -7 -10 -17t-10 -23.5t-7 -18.5q-22 -47 -28 -94.5t-6 -116.5z" />
<glyph unicode="l" horiz-adv-x="526" d="M-27 872q-1 40 -1 76q0 159 28 250l9.5 28.5l10 30t10.5 26t14.5 27t17 21.5t24 21.5t29.5 15.5q21 9 43 9q25 1 51 -11q50 -22 63 -70q3 -9 18 -42t17 -52q5 -48 5 -108q0 -30 -1 -64v-21q1 -18 1 -44q2 -43 1.5 -70t-6.5 -63.5t-20 -65.5q-12 -26 -44.5 -124.5 t-66.5 -145.5q-10 -27 -10 -83v-19q2 -71 8 -111q11 -83 45 -213q8 -35 41 -99q3 -5 23 -3t26 7q12 15 23.5 33t18 30.5t19 37t19.5 37.5q14 27 24.5 51.5t23.5 57t22 52.5q38 93 43 101q1 2 22 61.5t35 75.5q19 19 27 -20q2 -9 2 -19q0 -15 -4 -31q-8 -27 -26.5 -64 t-22.5 -46q-6 -15 -38.5 -115.5t-61.5 -168t-60 -105.5q-21 -24 -37 -39q-15 -16 -42 -28q-25 -12 -52 -11h-4q-35 2 -64.5 17.5t-50.5 43t-36 54.5t-27 67.5t-17.5 65t-13.5 63.5q-44 248 -58 696zM131 645q3 -44 23 -82q1 0 15.5 30.5t29 64t16.5 40.5q4 26 16.5 75 t16.5 73q10 62 10 110q-2 76 -3 108t-11 94.5t-29 103.5q-5 14 -18 14q-1 0 -9 -8q-8 -10 -16 -23.5t-14.5 -25.5t-7.5 -15q-4 -16 -4 -36.5t2 -45.5t2 -37q-1 -31 -9 -87.5t-10 -79.5q-1 -9 0 -20q0 -22 2 -54q4 -48 4 -64q1 -20 -3 -66q-3 -35 -3 -58v-11z" />
<glyph unicode="m" horiz-adv-x="1308" d="M-32 42q10 48 14 62q6 37 17 111t17 111q15 129 15 147v2q0 3 -1.5 13t-0.5 16q2 13 16 41q2 4 6 14t7.5 17t8.5 14t11 10q7 3 17 3q20 0 50 -13q27 -12 37 -64q5 -26 5 -47q0 -22 -5 -39v-53q15 31 27 47q64 116 86 146q23 34 75 45q16 3 30 3q33 0 55 -18 q20 -20 28 -30q7 -8 11.5 -22t7.5 -19q2 -6 5 -8t6.5 -1t6.5 2.5t6.5 6t5.5 8t5 8.5t4 6q4 5 26 30t31 40q66 85 143 137q23 16 49 16q20 0 41 -9q49 -22 68 -75q31 -90 31 -223v-31q0 -24 -8 -126q-7 -90 -7 -142v-14q2 -40 13 -98q2 -13 0.5 -48t3.5 -53q5 -24 22.5 -62 t18.5 -40q6 -13 25.5 -17t37.5 4q8 4 19 15q6 5 10.5 11t9.5 16t8 14q34 51 45 71q56 92 74 138q7 18 18.5 44t18.5 44q36 106 37 108q15 35 39 119q7 23 16 45q1 3 3.5 8.5t4.5 9.5t3.5 9t0.5 8q18 15 35 -6q2 -6 2 -12.5t-2 -14.5q-2 -5 -12 -35q-5 -15 -5.5 -51.5 t-4.5 -50.5q-17 -52 -37.5 -101.5t-47 -110t-42.5 -99.5q-53 -122 -150 -219q-20 -19 -34 -29.5t-37 -19.5q-16 -6 -31 -6q-7 0 -14 1q-11 3 -21.5 8.5t-27 16t-23.5 14.5q-6 5 -16.5 12.5t-16.5 12.5q-11 11 -17.5 22t-13.5 31t-10 27l-13 26t-12 25.5t-9 23t-9 27.5 q-18 88 -18 181q0 43 4 87q6 99 26 289q6 37 9 76q6 42 6 49q-2 14 -15.5 18t-28.5 0t-24 -12q-65 -54 -147 -184q-21 -31 -29.5 -93t-13.5 -77q-22 -67 -54 -211q-8 -24 -8 -57q-3 -68 -65 -82q-22 -6 -23 -6q-26 -12 -37 -5.5t-8 35.5q5 50 18.5 149.5t18.5 149.5 q1 20 1 47q0 54 -5 136q0 8 -8 19t-13 9q-25 0 -38 -20q-25 -33 -48 -76q-75 -136 -98 -191q-4 -9 -20.5 -43t-22.5 -50t-12 -45t-4 -56q1 -24 -12 -52t-33 -48q-21 -18 -95 -23q-3 -1 -9 8t-10 22q-4 11 -3 18q-1 16 13 78z" />
<glyph unicode="n" horiz-adv-x="763" d="M6 598q8 44 43 58q14 5 27 5l43 -13q35 -21 43 -62q3 -20 16 -68q43 38 53 51q9 11 48.5 68.5t64.5 83.5q39 43 58 45q2 0 3 1q20 0 66 -26q100 -53 100 -157v-6q-1 -25 -16 -158q-12 -116 -16 -170q-2 -24 9 -29t24.5 2t27.5 19q9 10 17.5 22.5t18 29t15.5 25.5 q14 20 48 74t55 82q3 3 8 10.5t8 10.5q4 5 14.5 21t18.5 26t20.5 18t24.5 6q4 -8 4 -15q0 -5 -3 -10q-3 -6 -6 -10t-8.5 -10.5t-7.5 -9.5q-26 -33 -61 -100q-14 -28 -70 -107q-13 -17 -38 -62.5t-44 -66.5q-59 -66 -129 -96q-20 -8 -40 -8q-27 0 -51 16q-42 28 -48 82 q-2 25 -2 50q0 141 47 310q17 56 27 123q1 4 -1 10.5t-6 14.5t-5 12q-25 -15 -29 -20q-36 -50 -96 -140q-73 -103 -93 -145q-16 -32 -20 -111q-2 -20 -2 -42.5t1 -49.5t1 -41q0 -24 -32 -52q-29 -26 -53 -26h-3q-43 4 -54.5 18.5t-11.5 59.5q0 18 2 61.5t2.5 69t-1 62 t-7.5 65.5q-11 56 -11 111q0 44 7 88z" />
<glyph unicode="o" horiz-adv-x="600" d="M-20 190v22q0 45 6 97q2 16 7 39t7 37q4 38 6 45q1 3 3.5 16t6.5 21q1 2 3.5 5t3.5 5q6 10 11.5 18.5t13 17t11.5 13.5t14.5 15.5t14.5 15.5q2 0 4 2q26 27 65 29h13q32 0 63 -10q36 -8 60 -25t53 -49q7 -9 17.5 -29t19.5 -29q9 -10 31 -10q24 0 66 12q78 24 102 44 q3 3 13 9t13 9q48 44 90 70q14 9 23 9q10 0 12 -11q1 -3 1 -7q0 -19 -19 -39q-42 -47 -123 -106q-9 -6 -53 -22t-54 -25q-2 -2 -17.5 -6t-30.5 -6.5t-15 -1.5v-5q0 -19 4 -98q1 -12 3.5 -31t3.5 -28.5t-1 -32.5q-3 -56 -26 -104q-67 -143 -201 -166q-10 -2 -20 -2l-80 28 q-50 35 -80 94l-2 3q-4 9 -12.5 21.5t-12.5 21.5q-5 14 -12 47q-6 23 -6 77zM147 127q0 -38 3 -53q11 -37 47 -66q25 -20 43 -20q8 0 14 4q35 20 55.5 38.5t36.5 47.5q1 2 5 9t4.5 8t3 6.5t3 8t2 8.5t2 12t1.5 15q1 16 1 33.5t-0.5 29t-3.5 31l-4 26t-5 29t-5 25.5 q-14 1 -82 19q-41 11 -66 11q-17 0 -28 -5q-9 -4 -11.5 -16.5t-1.5 -25.5t-1 -28q-13 -74 -13 -147zM225 432q9 -9 21 -12q17 -6 28 -6h5t5.5 1t4.5 1l6 4q0 4 -6 10q-2 2 -5.5 7.5t-6 8.5t-6.5 6.5t-9 4.5q-4 4 -10 4h-8q-10 0 -17 -10q-5 -5 -5 -10t3 -9z" />
<glyph unicode="p" horiz-adv-x="761" d="M12 115v19q0 69 11 212v8q0 22 -3 68q-5 50 -5 95q0 5 1 10q0 49 13 73q14 24 51 31q17 3 31 3q19 0 34 -5q32 -10 41 -63q5 -34 5 -67q0 -19 -2 -37q-2 -16 -2 -30q0 -32 8 -55q19 11 50.5 58t61.5 57q17 6 33.5 6t29 -4t27.5 -13.5t25.5 -18t25.5 -22t25 -20.5 q19 -14 33 -31q10 -12 17 -34.5t11.5 -41t12 -32.5t21 -12t34.5 24q19 21 166 205q25 35 78 57q8 -13 8 -28q0 -24 -17 -54q-28 -51 -69.5 -91.5t-96 -88.5t-61.5 -55q-4 -4 -17 -14.5t-22.5 -21t-11.5 -20.5q-2 -9 8 -37t11 -36q1 -16 1 -32q0 -35 -5 -71q-9 -52 -37 -98 t-72 -53q-20 -3 -35 8q-58 41 -65 135q-2 30 -2 50t2 30q6 20 32 84q15 35 21 41q4 3 12 8.5t13.5 10.5t9.5 11q0 2 1.5 4t2.5 5q0 3 -4 13t-4 13q-1 4 -3.5 12.5t-3.5 12.5q-11 26 -32 55q-35 51 -66 51q-13 0 -25 -10q-33 -25 -73 -98q-47 -87 -58 -250q-3 -56 -17 -158.5 t-17 -132.5q-4 -46 -10.5 -137t-10.5 -137q-12 -141 -27 -285q-13 -99 -46 -101h-1q-17 0 -36 29q-21 32 -21 93q0 42 10 98q5 37 6 78v36v63q-2 58 -2 81q1 106 1 203q0 192 -5 344zM419 -10q6 -29 32 -29q3 0 5.5 1t4.5 2t3.5 3t2.5 3.5t2 4.5l1.5 4.5t1 5.5t0.5 5.5 t0.5 6t0.5 5.5q1 6 3 17.5t3 17.5q0 5 1 15.5t1 15.5q0 17 -4 49q-1 40 -6 43q-31 -27 -33 -60q-2 -10 -8 -28.5t-8 -28.5q-5 -14 -5 -30q0 -11 2 -23z" />
<glyph unicode="q" horiz-adv-x="800" d="M-6 188q-12 63 -12 132q0 107 30 227q13 49 85 120q91 90 161 96h8q53 0 72 -63q4 -13 8 -16.5t7 0t9 12.5q14 17 25 27.5t25.5 19t31.5 7t35 -14.5q18 -11 33 -32.5t12 -34.5q-16 -88 -20 -178q-1 -46 -1 -103t1 -127q4 -138 4 -178v-385q0 -17 2 -23q2 3 7 9.5t7 9.5 q18 44 64 141t67 152q67 170 129 342q15 40 41.5 114t36.5 103q13 31 25 41q10 7 24 3.5t17 -14.5q1 -3 1 -6q0 -7 -3 -16q-34 -89 -109.5 -275t-129 -329.5t-91.5 -280.5q-13 -47 -43.5 -131.5t-50 -155t-23.5 -137.5l-1 -15q0 -15 1 -15q3 -19 3 -30t-11.5 -19.5 t-21 -11.5t-25.5 -7q-7 -2 -13 -2q-30 0 -32 37q-15 230 -17 276q-16 410 -22 617v33v67q2 65 2 86q0 4 -2 9t-5.5 11t-4.5 9q-2 -4 -7.5 -12.5t-7.5 -12.5q-41 -96 -47 -108q-13 -31 -75 -64q-47 -25 -81 -25q-12 0 -22 3q-81 24 -96 118zM110 288v-13q0 -33 9 -59 q11 -30 35 -42q7 -4 15 -4q12 0 25 8q21 14 39 43.5t29.5 52t20.5 43.5q26 62 32 121q3 21 3 43q0 70 -29 150q-2 6 -6 12.5t-10.5 14.5t-8.5 12q-98 -104 -135 -254q-7 -29 -12 -58.5t-7 -69.5z" />
<glyph unicode="r" horiz-adv-x="608" d="M-103 620q-1 11 -1 21q0 18 2 35q4 26 10.5 62.5t7.5 49.5q3 29 39 51q29 18 57 18q6 0 13 -1q53 -6 53 -78v-8q0 -17 3.5 -48t4.5 -40q0 -15 -4 -39q-3 -25 22 -39t58 -16q62 0 94.5 -45t34.5 -115q0 -41 -11.5 -116.5t-13.5 -100.5q-8 -106 -8 -162q0 -66 23 -76 q6 -1 10 -2t11 2.5t11.5 5.5t11 7t10 8t8.5 8t7 6q21 18 48.5 59.5t43.5 57.5q15 16 28.5 36t29 45t24.5 38q15 23 47.5 95.5t59.5 117.5q42 74 69 74q2 0 5 -1q-1 -12 1 -17q1 -2 1 -4q0 -5 -3 -13q-4 -12 -4.5 -17t-6 -17.5t-7.5 -17.5t-9 -16.5t-9 -16t-8.5 -15 t-8.5 -13.5q-12 -19 -56 -114t-65 -119q-34 -39 -84.5 -122t-72.5 -112q-33 -43 -97 -80q-14 -11 -33 -11q-5 1 -9 1q-24 4 -39.5 11t-36.5 22q-17 14 -33 47q-40 64 -40 144q0 33 7 69q7 43 17 90.5t23 105.5t20 91q7 27 4 49q-1 17 -13 21t-29 -1t-36 -8t-33 0 q-39 14 -76.5 42.5t-58.5 61.5q-11 19 -13 49zM-18 737q0 -3 3 -9t3 -7q4 -29 10 -41q1 -3 4 -8t4 -8q5 -10 10 -15q5 0 9 -4q5 -2 7 -2h1t1 1t-2 4q-1 2 -1 3q-2 7 -2 43q0 17 -2 25q0 6 -4 26q-5 21 -13 27q-2 1 -5 1q-8 0 -19 -15q-4 -12 -4 -21z" />
<glyph unicode="s" horiz-adv-x="575" d="M-37 674q11 43 52 83t77 40h4q26 0 44 -27q18 -28 18 -69l-1 -15q0 -8 -1.5 -16.5t-5.5 -14.5q-9 -16 -11 -30.5t4 -29t12 -24t19 -26.5q25 -35 61.5 -68t81.5 -68.5t70 -58.5q102 -99 119 -194q3 -21 3 -41q0 -78 -50 -133q-2 -2 -20.5 -23.5t-23 -26t-20.5 -21.5 t-25 -24t-23 -17t-28 -17q-47 -22 -90 -22q-7 1 -15 1q-50 4 -89 33t-55 72q-10 29 -10 53q0 26 12 46q24 38 80 48q10 1 25 -15t26 -34q3 -5 -4.5 -21t-16.5 -20q-26 -15 -25 -32q0 -14 15 -30q34 -37 69 -37q10 0 20 3q45 14 71 84q16 46 16 91t-16 89q-15 40 -36 67.5 t-55.5 60.5t-54.5 56q-8 10 -97.5 90t-106.5 125q-21 58 -21 93q0 11 2 20zM51 692q6 -11 23 -33l6 -14q-1 6 0.5 13t3.5 12l5 12.5t5 11.5q5 13 5 23q0 16 -13 24q-6 3 -12 3q-13 0 -23 -15q-4 -6 -4 -15.5t4 -21.5z" />
<glyph unicode="t" horiz-adv-x="569" d="M-133 850q-2 5 -2 9q0 7 4 13q9 12 41 -2q25 -10 71 -22.5t60 -16.5q2 25 7 74.5t7 73.5q0 3 0.5 16t1 18t2 16.5t3.5 18t5.5 15.5t8.5 15.5t12 11.5q14 10 41 18q21 6 43 6h12q28 -2 39 -18q18 -20 18 -49q0 -5 -1 -11q-7 -120 -25 -200q1 4 9.5 8t21.5 6.5t24.5 4.5 t23 3.5t13.5 1.5q15 2 45 8.5t47 8.5q12 2 31.5 -2t24.5 -13q0 -1 1 -2t1 -2q4 -7 1 -12.5t-6.5 -8.5t-11 -5.5t-13.5 -4t-13.5 -2.5t-10.5 -2q-93 -21 -174 -61q-15 -6 -23 -15.5t-10 -15t-4 -24.5t-4 -27q-20 -100 -24 -160q-3 -42 -3 -89.5t1.5 -106.5t1.5 -91 q0 -139 2 -167q0 -4 18 -72q6 4 19 10.5t22.5 13t14.5 13.5q15 19 51.5 54.5t52.5 53.5q80 90 121 146q19 26 49 76.5t55 82.5q6 9 15 31t18 31.5t23 3.5q11 -6 11 -19q0 -7 -4 -15q-4 -10 -11.5 -24.5t-10.5 -23.5q-5 -19 -13 -33.5t-22 -34.5t-20 -30q-41 -64 -78 -115 q-39 -53 -102 -129q-43 -48 -125 -127q-29 -29 -45 -41q-29 -25 -63 -31q-8 -1 -17 -1q-24 0 -46 13q-29 18 -42 60q-24 82 -35 213q-4 74 -4 95v7q0 25 3 94q3 80 3 95q0 60 12 174q0 3 10 54q6 29 6 47q0 14 -3 22q-9 23 -71.5 40.5t-76.5 30.5q-10 7 -14 19z" />
<glyph unicode="u" horiz-adv-x="804" d="M6 356q4 129 12 189q4 27 11 51.5t20 61.5t17 49q0 3 3.5 6.5t6.5 3.5q16 -2 21 -3t14 -5.5t18 -8.5q55 -23 55 -68q0 -19 -10 -128q-8 -87 -10 -131q0 -16 12 -78q57 57 60 63q80 147 159 291q3 6 13.5 11t17.5 4q16 -5 30.5 -1.5t30 -2.5t23.5 -25q2 -4 2 -25 q1 -28 1.5 -79.5t1.5 -93.5t3 -79q0 -31 13 -67.5t36 -52.5q13 -9 25 -11.5t24 4.5t19 12t20 18.5t17 17.5q17 16 33.5 34.5t36 43.5t30.5 38q10 11 32 44.5t40 53t35 21.5h12q4 0 4 -7q-1 -4 -3 -10q-2 -7 -5 -15.5t-7.5 -17.5t-8 -15.5t-6.5 -12.5l-3 -6q-55 -74 -94 -123 q-9 -10 -31 -36t-35 -40t-35 -30t-44 -23q-21 -8 -53 -8q-14 0 -32 2q-56 6 -83 29q-37 35 -60 137q-3 13 -6 36.5t-4 31.5q-3 11 -14 26q-1 -1 -9 -7t-10 -11q-1 -3 -12 -32t-18 -44q-2 -6 -35 -55q-6 -10 -20.5 -36.5t-26 -44.5t-23.5 -34q-29 -32 -76 -45q-5 -1 -10 -1 q-24 0 -55 26q-37 32 -51 65q-20 44 -20 117q0 13 1 26z" />
<glyph unicode="v" horiz-adv-x="747" d="M-15 508q0 20 3 37q6 40 49 55q56 21 76 21q15 -1 24.5 -9t13.5 -22.5t5.5 -26.5t1.5 -29.5v-21.5q2 -19 15 -60.5t13 -64.5q0 -37 29 -104q17 -36 46.5 -105t37.5 -88q0 -2 4 -6q8 8 8 10q3 11 14 51t17 62q18 77 33 131q3 11 13 30t13 27l7 17.5t6.5 17.5t3.5 16.5 t-2 14.5q-4 11 -4 19q0 28 39 38q15 2 23.5 2.5t16 -9t10.5 -15t7 -15.5q28 -62 89 -62q9 0 19 1q59 9 92 24t76 52q15 10 19 14q13 13 17.5 14.5t23.5 1.5q0 -13 -3 -25t-5 -19t-12.5 -18t-13.5 -13.5t-19.5 -15.5t-18.5 -15q-5 -4 -18 -14t-17 -13t-14.5 -10t-16 -9.5 t-16.5 -8t-20 -7.5t-23 -5.5t-30 -6t-35 -4.5q-7 -1 -34 9.5t-32 15.5q-17 15 -28.5 19t-19 -4t-11 -17t-8.5 -27q-12 -45 -33.5 -139.5t-34.5 -141.5q-3 -15 -15.5 -40t-15.5 -35q-11 -33 -18 -45t-25 -29q-1 -1 -9 -8.5t-9.5 -8.5t-8.5 -6t-11 -6t-10.5 -2.5t-14.5 -1.5 q-21 0 -42.5 19t-27.5 30q-5 13 -8.5 20.5t-5 9.5t-3 3.5t-2.5 3.5t-4 9.5t-8 21.5q-5 15 -31 74t-32 92q-8 40 -51 170l-11.5 34.5l-12.5 37.5t-10 35t-8 38t-2 35z" />
<glyph unicode="w" horiz-adv-x="1183" d="M2 168q3 37 3.5 106t2.5 99q1 16 3.5 59t4.5 64.5t6.5 55t10.5 62.5q18 71 55 71q8 0 16 -3q25 -10 38 -44.5t14.5 -59.5t1.5 -65v-7q0 -104 14 -258q0 -8 4 -22t4 -17q12 12 21 27q15 30 42 85t49.5 100t43.5 85q25 51 63 86q22 20 48 8t32 -43l12 -63t13.5 -75.5 t9.5 -64.5q5 -43 20.5 -89t31 -76t42.5 -78q18 -32 34 -31q17 0 32 37q32 87 49 172q9 45 13 69q6 25 10 64q4 35 4 66v6q0 34 -7 67q-4 29 16.5 49t45.5 15q12 -2 23 -9.5t24 -24.5t16.5 -21.5t16.5 -24.5q27 -36 45 -56.5t48 -43t62 -29.5q15 -3 29 -3q59 0 109 58 q5 5 21 27t26 30q5 5 16 10t16 11q17 -12 17 -31q0 -15 -10 -33q-24 -43 -64 -83.5t-59 -49.5q-32 -15 -69 -15q-50 0 -108 27q-101 47 -139 128q5 -29 6 -65q0 -82 -28 -198q-28 -135 -111 -241q-42 -47 -59 -60q-14 -12 -32 -12q-30 0 -69 35q-20 18 -36.5 38t-31 47 t-23.5 44t-20.5 52.5t-15.5 48t-16 55.5t-14 51q-4 11 -14 29t-11 20q-3 -5 -14.5 -19t-16.5 -22q-6 -12 -25 -55.5t-32 -63.5q-1 -2 -22 -37t-31 -48t-30.5 -37t-39.5 -33.5t-39 -8.5q-50 4 -76 52q-22 40 -23 86q0 9 1 18z" />
<glyph unicode="x" horiz-adv-x="827" d="M-24 746q-1 4 -1 7q0 10 13 13q38 12 67 12q32 0 54 -14l10 -10q7 3 14 -4q86 -75 131 -205q3 5 9.5 15t9.5 15q57 96 87 130q27 30 56 49q49 34 96 34h12q57 0 68 -36q1 -5 1.5 -9t1 -7.5t-1 -6.5t-2 -5t-4 -4t-4 -3t-5.5 -3t-5.5 -2.5t-6.5 -2.5t-7 -2q-31 -12 -63 -41 q-10 -11 -19 -22.5t-17.5 -26t-14 -24t-14.5 -27.5t-13 -25q-7 -15 -26 -46t-27 -49q-11 -24 -11 -51q0 -24 9 -51q50 -166 104 -242q11 3 22 10.5t15.5 12t17 19.5t13.5 16q10 12 32.5 31.5t32.5 31.5q30 30 84 96q12 15 39 56q17 24 45.5 75.5t46.5 75.5q31 47 46 47h1 q8 0 12 -3q5 -2 6 -8q1 -4 1 -8q0 -10 -4 -20q-3 -8 -6 -14.5t-8.5 -15.5t-8.5 -14t-7 -11.5t-5 -7.5q-45 -78 -88 -137q-139 -194 -248 -303q-44 -44 -86 -44q-24 0 -47 15q-25 14 -44.5 45t-25.5 62q-14 52 -55 129q-6 10 -10.5 15.5t-9 5.5t-7.5 -1t-6.5 -7t-6 -10.5 t-6 -13t-5.5 -12.5q-28 -55 -33 -65q-12 -22 -34 -66t-34 -66q-16 -32 -30 -38q-11 -5 -22 -5q-8 0 -14 2q-18 5 -28 19q-13 17 -13 41q0 12 3 26q5 27 27 64q115 219 137 260q6 13 10 27q2 15 -14 57q-28 89 -49 174q-2 6 -6 29t-10 37t-17 20q-7 5 -14.5 7t-18.5 1.5 t-16.5 -1t-19 -3t-15.5 -2.5q-15 -3 -20 13z" />
<glyph unicode="y" horiz-adv-x="745" d="M-24 317q-1 16 -1 31q0 31 7 51q13 65 13 101q0 10 -1 18q-4 27 6 37q1 1 26 3t27 3q24 9 41 9q15 0 25 -7q18 -13 18 -59q-4 -118 -4 -178q0 -35 12 -121t13 -117q0 -8 4 -20q9 -28 24 -30.5t39 17.5q50 41 103 123q54 80 71 113q43 73 78 147q3 7 3.5 22t2.5 21 q6 15 23 25q9 7 28.5 20.5t28.5 20.5q30 15 35 14q7 -1 14 -9.5t9 -16.5q1 -22 2 -67t2 -67q0 -23 1 -48t2.5 -55.5t2.5 -47.5v-162q-2 -43 -2 -229q0 -5 6 -9.5t10 -3.5q26 5 57 19q16 6 32 6q30 0 63 -18q2 -1 14 -9q22 -13 22 -38v-6q-3 -29 -32 -48q-23 -16 -31 12 q-11 42 -44 42q-13 0 -30 -7q-6 -2 -19.5 -7t-19.5 -7q-2 -1 -5 -2q-34 -10 -43 -26l-5 -9q-4 -16 -4 -24q-1 -6 -0.5 -25t-1.5 -27q-4 -40 -43 -178q-61 -215 -188 -315q-31 -25 -66 -26h-4q-33 0 -59 14q-28 15 -52 42q-34 37 -34 90q0 69 57 164q24 41 59.5 83.5t61 67 t76.5 71.5q22 22 57 43q39 26 39 65v6q-3 58 -8.5 224t-8.5 223q0 25 -2 37l-6 12q-2 -1 -6.5 -4.5t-5.5 -5.5q-6 -10 -40.5 -68.5t-55.5 -87.5q-15 -20 -33 -41t-40 -45.5t-34 -38.5q-32 -32 -39 -37q-60 -51 -84 -65q-16 -10 -30 -11t-25 6t-20 17.5t-15.5 27t-11.5 31.5 t-8.5 33t-5.5 29.5t-3 23.5q-3 27 -14 79.5t-18 89t-12 89.5zM260 -600q-4 -25 -4 -46q0 -81 55 -126q10 -9 22 -9q4 0 7 1q16 3 25 20q38 73 45 92q41 93 53 191q5 26 22 96h-2q0 4 1 12.5t1 12.5q1 3 1 6q0 7 -3 18l-24 -12q-32 -28 -92 -84q-46 -43 -73 -82.5t-34 -89.5z " />
<glyph unicode="z" horiz-adv-x="638" d="M-23 -461q10 44 37 60.5t58 1.5q26 -14 34 -50q3 -13 3 -26q0 -23 -9 -45q-22 -53 -22 -80q0 -30 28 -64q26 -29 64 -33q5 -1 11 0q33 0 65 21q181 131 227 402q6 39 10 118q-8 225 -194 359q-13 8 -29.5 11.5t-43 4.5t-34.5 2q-20 1 -56 -0.5t-48 -1.5q-4 0 -9.5 3 t-9 6.5t-2.5 4.5q10 34 19 43q17 19 72.5 71t87 92.5t51.5 92.5q6 13 10 25t6 25.5t-5.5 19.5t-23.5 0q-8 -2 -64 -30q-55 -27 -79 -27h-2q-20 0 -27 14t4 37q14 26 89 59q44 19 81 19q86 0 138 -101q7 -16 7 -35q-1 -20 -7 -42q-14 -46 -39 -78q-2 -2 -4 -5 q-34 -40 -33 -51q1 -12 38 -27q6 -3 17 -7q65 -28 134 -132.5t75 -201.5q2 -28 2 -55q0 -242 -121 -433q-57 -90 -112 -152t-125 -95q-49 -24 -91 -24q-61 0 -110 50q-77 76 -77 181q0 35 9 73z" />
<glyph unicode="{" horiz-adv-x="479" d="M61.5 -153q13.5 102 71.5 192q27 49 29 53q31 64 45.5 118t9 117t-38.5 122q-6 13 -3 38.5t13 32.5q32 28 46.5 57.5t11 62t-12.5 58t-28 62.5q-6 12 -42 78.5t-52 103.5q-27 64 -17.5 125.5t43 110t94.5 79t136 31.5q41 -25 61 -35q-6 -3 -29.5 -19t-38.5 -20 q-32 -10 -47 -16.5t-29 -15.5t-17 -22t-3 -31.5t6 -47.5q9 -54 76 -305q41 -145 -55 -231q-25 -25 -28 -50.5t13 -56.5q60 -114 29 -270q-13 -64 -40.5 -179.5t-35.5 -150.5q-37 -166 19.5 -294.5t204.5 -213.5q9 -5 31.5 -14.5t33.5 -17.5q7 -4 14 -17t5 -18 q-18 -23 -39 -23q-13 0 -58 15q-82 28 -157 87t-128 140t-80 172t-13.5 193z" />
<glyph unicode="|" horiz-adv-x="444" d="M157.5 -228.5q-3.5 34.5 0.5 62.5q12 169 36 506t35 506q3 27 0 70.5t-0.5 95t8 96t26 74t54.5 28.5q17 -1 30.5 -8t21.5 -17.5t13 -27.5t6.5 -31t1.5 -35.5t-0.5 -35t-2.5 -34.5t-2 -28q-13 -203 -27 -389q-7 -116 -53 -749q-1 -19 3 -59.5t3.5 -74t-12.5 -53.5 q-13 -25 -47 -28q-32 -3 -53.5 16.5t-29.5 50t-11.5 65z" />
<glyph unicode="}" horiz-adv-x="479" d="M0 -737q-2 5 4.5 18t13.5 17q11 8 34 17.5t32 14.5q298 171 223 508q-8 35 -35.5 150.5t-40.5 179.5q-31 156 29 270q16 31 13.5 56.5t-27.5 50.5q-97 87 -56 231q67 251 76 305q6 29 6 47.5t-3 31.5t-17 22t-29 15.5t-47 16.5q-15 3 -38 19.5t-29 19.5q20 10 61 35 q75 -1 136 -31.5t94.5 -79t43 -110t-17.5 -125.5q-16 -37 -52 -103.5t-42 -78.5q-19 -38 -28 -62.5t-13 -57.5t10.5 -62.5t46.5 -57.5q10 -7 13 -32.5t-3 -38.5q-33 -59 -38 -122t9.5 -117t45.5 -118q6 -13 28 -53q58 -90 71.5 -192t-13.5 -193t-80 -172t-128 -140t-157 -87 q-45 -15 -57 -15q-21 0 -39 23z" />
<glyph unicode="~" horiz-adv-x="645" d="M0 489q0 13 8 13l12 -8q13 -8 34 -15.5t42 -7.5q5 0 16.5 1t18.5 1q59 0 144.5 12.5t121.5 12.5q129 0 181 -52q8 -8 8 -12l32 -28q2 -2 3 -7t2 -6q1 -2 11.5 -19.5t10.5 -27.5q0 -8 -6 -8q-1 0 -3.5 3t-5.5 7t-5 6q-14 7 -17 11q-15 0 -30 6q-5 2 -7 2q-1 0 -4 -1t-4 -1 q-4 0 -11.5 4t-16.5 4q-57 0 -172 -20.5t-177 -20.5q-58 0 -106 26.5t-70 77.5q-1 6 -5.5 21.5t-4.5 25.5z" />
<glyph unicode="&#xad;" d="M0 621q0 1 2 3.5t4 2.5q54 -60 150 -60q35 -1 105.5 11t103.5 12q19 0 47 -4q6 1 9 2.5t7 1.5h8q37 -5 63 -18t48 -46q16 -22 16 -57q0 -8 -10.5 -32.5t-20.5 -24.5q-2 0 -6 4q4 0 4 6q0 8 -9.5 21.5t-16.5 13.5h-10q-5 0 -16.5 4t-18.5 4q-66 18 -137 18q-23 0 -64.5 -2 t-62.5 -2q-49 0 -76 6q-39 1 -60.5 24.5t-40.5 65.5q-18 31 -18 46z" />
<glyph unicode="&#x2000;" horiz-adv-x="848" />
<glyph unicode="&#x2001;" horiz-adv-x="1696" />
<glyph unicode="&#x2002;" horiz-adv-x="848" />
<glyph unicode="&#x2003;" horiz-adv-x="1696" />
<glyph unicode="&#x2004;" horiz-adv-x="565" />
<glyph unicode="&#x2005;" horiz-adv-x="424" />
<glyph unicode="&#x2006;" horiz-adv-x="282" />
<glyph unicode="&#x2007;" horiz-adv-x="282" />
<glyph unicode="&#x2008;" horiz-adv-x="212" />
<glyph unicode="&#x2009;" horiz-adv-x="339" />
<glyph unicode="&#x200a;" horiz-adv-x="94" />
<glyph unicode="&#x2010;" d="M0 621q0 1 2 3.5t4 2.5q54 -60 150 -60q35 -1 105.5 11t103.5 12q19 0 47 -4q6 1 9 2.5t7 1.5h8q37 -5 63 -18t48 -46q16 -22 16 -57q0 -8 -10.5 -32.5t-20.5 -24.5q-2 0 -6 4q4 0 4 6q0 8 -9.5 21.5t-16.5 13.5h-10q-5 0 -16.5 4t-18.5 4q-66 18 -137 18q-23 0 -64.5 -2 t-62.5 -2q-49 0 -76 6q-39 1 -60.5 24.5t-40.5 65.5q-18 31 -18 46z" />
<glyph unicode="&#x2011;" d="M0 621q0 1 2 3.5t4 2.5q54 -60 150 -60q35 -1 105.5 11t103.5 12q19 0 47 -4q6 1 9 2.5t7 1.5h8q37 -5 63 -18t48 -46q16 -22 16 -57q0 -8 -10.5 -32.5t-20.5 -24.5q-2 0 -6 4q4 0 4 6q0 8 -9.5 21.5t-16.5 13.5h-10q-5 0 -16.5 4t-18.5 4q-66 18 -137 18q-23 0 -64.5 -2 t-62.5 -2q-49 0 -76 6q-39 1 -60.5 24.5t-40.5 65.5q-18 31 -18 46z" />
<glyph unicode="&#x2012;" d="M0 621q0 1 2 3.5t4 2.5q54 -60 150 -60q35 -1 105.5 11t103.5 12q19 0 47 -4q6 1 9 2.5t7 1.5h8q37 -5 63 -18t48 -46q16 -22 16 -57q0 -8 -10.5 -32.5t-20.5 -24.5q-2 0 -6 4q4 0 4 6q0 8 -9.5 21.5t-16.5 13.5h-10q-5 0 -16.5 4t-18.5 4q-66 18 -137 18q-23 0 -64.5 -2 t-62.5 -2q-49 0 -76 6q-39 1 -60.5 24.5t-40.5 65.5q-18 31 -18 46z" />
<glyph unicode="&#x2013;" horiz-adv-x="1028" d="M0 621q0 1 3.5 3.5t7.5 2.5q98 -60 273 -60q63 -1 191.5 11t188.5 12q34 0 85 -4q11 1 16.5 2.5t12.5 1.5h15q67 -5 114.5 -18t87.5 -46q29 -22 29 -57q0 -8 -19 -32.5t-37 -24.5q-4 0 -11 4q7 0 7 6q0 8 -17.5 21.5t-29.5 13.5h-18q-10 0 -30.5 4t-33.5 4 q-120 18 -249 18q-42 0 -117.5 -2t-113.5 -2q-89 0 -139 6q-70 1 -109.5 24.5t-73.5 65.5q-33 31 -33 46z" />
<glyph unicode="&#x2014;" horiz-adv-x="2052" d="M0 621q0 1 7.5 3.5t14.5 2.5q196 -60 545 -60q128 -1 384.5 11t376.5 12q69 0 171 -4q22 1 32.5 2.5t25.5 1.5h29q135 -5 229.5 -18t174.5 -46q58 -22 58 -57q0 -8 -38 -32.5t-75 -24.5q-7 0 -22 4q15 0 15 6q0 8 -34.5 21.5t-60.5 13.5h-36q-18 0 -60 4t-67 4 q-240 18 -499 18q-83 0 -234 -2t-228 -2q-178 0 -276 6q-142 1 -220 24.5t-148 65.5q-65 31 -65 46z" />
<glyph unicode="&#x202f;" horiz-adv-x="339" />
<glyph unicode="&#x205f;" horiz-adv-x="424" />
<glyph unicode="&#x25fc;" horiz-adv-x="788" d="M0 0v788h788v-788h-788z" />
</font>
</defs>
</svg>
